<svg width="380" height="313" viewBox="0 0 380 313" fill="none" xmlns="http://www.w3.org/2000/svg">
<mask id="mask0_8883_24521" style="mask-type:alpha" maskUnits="userSpaceOnUse" x="-172" y="-94" width="552" height="407">
<rect x="-172" y="-94" width="552" height="407" fill="#D9D9D9"/>
</mask>
<g mask="url(#mask0_8883_24521)">
<rect x="-387" y="-426" width="1855" height="1124" fill="#F1F5FD"/>
<path d="M1208.59 47.275C1286.43 110.325 1573.81 95.0323 1531.72 -184.071C1489.64 -463.174 810.716 -806.789 743.418 -471.647C719.477 -352.42 926.347 -363.75 1013.25 -275.345C1122.62 -164.071 1083.18 -54.2959 1208.59 47.275Z" fill="#2363EB" fill-opacity="0.09"/>
<g filter="url(#filter1_f_8883_24521)">
<path d="M-151.584 -0.877392C-224.196 -69.8912 -511.883 -77.394 -492.019 204.165C-472.156 485.724 177.435 882 271.05 553.237C304.353 436.279 97.2355 431.199 17.6065 336.192C-82.6199 216.61 -34.608 110.302 -151.584 -0.877392Z" fill="#2363EB" fill-opacity="0.15"/>
</g>
<path d="M1657.14 505.077V517.751M1662.92 511.968H1650.25M1128.22 505.077V517.751M1134.01 511.968H1121.33M643.381 505.077V517.751M649.164 511.968H636.492M-194.072 505.077V517.751M-188.29 511.968H-200.962M1128.22 152.412V165.086M1134.01 159.303H1121.33M1657.14 152.412V165.086M1662.92 159.303H1650.25M863.764 505.077V517.751M869.546 511.968H856.874M26.3101 505.077V517.751M32.0925 511.968H19.4205M643.381 152.412V165.086M649.164 159.303H636.492M-194.072 152.412V165.086M-188.29 159.303H-200.962M863.764 152.412V165.086M869.546 159.303H856.874M26.3101 152.412V165.086M32.0925 159.303H19.4205M1392.68 505.077V517.751M1398.46 511.968H1385.79M995.993 505.077V517.751M1001.78 511.968H989.104M158.54 505.077V517.751M164.322 511.968H151.65M378.922 505.077V517.751M384.705 511.968H372.033M-458.532 505.077V517.751M-452.749 511.968H-465.421M995.993 152.412V165.086M1001.78 159.303H989.104M158.54 152.412V165.086M164.322 159.303H151.65M1392.68 152.412V165.086M1398.46 159.303H1385.79M731.534 505.077V517.751M737.317 511.968H724.645M-105.919 505.077V517.751M-100.137 511.968H-112.809M378.922 152.412V165.086M384.705 159.303H372.033M-458.532 152.412V165.086M-452.749 159.303H-465.421M731.534 152.412V165.086M737.317 159.303H724.645M-105.919 152.412V165.086M-100.137 159.303H-112.809M1524.91 505.077V517.751M1530.69 511.968H1518.02M1657.14 -68.0031V-55.3292M1662.92 -61.1124H1650.25M511.152 505.077V517.751M516.934 511.968H504.262M-326.302 505.077V517.751M-320.52 511.968H-333.192M1128.22 240.578V253.252M1134.01 247.469H1121.33M1524.91 152.412V165.086M1530.69 159.303H1518.02M1128.22 -68.0031V-55.3292M1134.01 -61.1124H1121.33M511.152 152.412V165.086M516.934 159.303H504.262M-326.302 152.412V165.086M-320.52 159.303H-333.192M863.764 240.578V253.252M869.546 247.469H856.874M26.3101 240.578V253.252M32.0925 247.469H19.4205M1260.45 505.077V517.751M1266.23 511.968H1253.56M643.381 -68.0031V-55.3292M649.164 -61.1124H636.492M-194.072 -68.0031V-55.3292M-188.29 -61.1124H-200.962M246.693 505.077V517.751M252.475 511.968H239.803M-590.761 505.077V517.751M-584.979 511.968H-597.651M995.993 240.578V253.252M1001.78 247.469H989.104M158.54 240.578V253.252M164.322 247.469H151.65M1260.45 152.412V165.086M1266.23 159.303H1253.56M1128.22 -420.668V-407.994M1134.01 -413.777H1121.33M246.693 152.412V165.086M252.475 159.303H239.803M-590.761 152.412V165.086M-584.979 159.303H-597.651M731.534 240.578V253.252M737.317 247.469H724.645M-105.919 240.578V253.252M-100.137 247.469H-112.809M1657.14 -420.668V-407.994M1662.92 -413.777H1650.25M1083.87 505.077V517.751M1089.66 511.968H1076.98M863.764 -68.0031V-55.3292M869.546 -61.1124H856.874M26.3101 -68.0031V-55.3292M32.0925 -61.1124H19.4205M1083.87 152.412V165.086M1089.66 159.303H1076.98M1657.14 240.578V253.252M1662.92 247.469H1650.25M819.415 505.077V517.751M825.197 511.968H812.525M-18.0392 505.077V517.751M-12.2568 511.968H-24.9288M643.381 240.578V253.252M649.164 247.469H636.492M-194.072 240.578V253.252M-188.29 247.469H-200.962M819.415 152.412V165.086M825.197 159.303H812.525M-18.0392 152.412V165.086M-12.2568 159.303H-24.9288M643.381 -420.668V-407.994M649.164 -413.777H636.492M-194.072 -420.668V-407.994M-188.29 -413.777H-200.962M951.644 505.077V517.751M957.427 511.968H944.755M114.19 505.077V517.751M119.973 511.968H107.301M863.764 -420.668V-407.994M869.546 -413.777H856.874M26.3101 -420.668V-407.994M32.0925 -413.777H19.4205M951.644 152.412V165.086M957.427 159.303H944.755M114.19 152.412V165.086M119.973 159.303H107.301M1392.68 240.578V253.252M1398.46 247.469H1385.79M687.185 505.077V517.751M692.967 511.968H680.295M-150.269 505.077V517.751M-144.486 511.968H-157.158M378.922 240.578V253.252M384.705 247.469H372.033M-458.532 240.578V253.252M-452.749 247.469H-465.421M687.185 152.412V165.086M692.967 159.303H680.295M-150.269 152.412V165.086M-144.486 159.303H-157.158M1392.68 -68.0031V-55.3292M1398.46 -61.1124H1385.79M995.993 -68.0031V-55.3292M1001.78 -61.1124H989.104M158.54 -68.0031V-55.3292M164.322 -61.1124H151.65M378.922 -68.0031V-55.3292M384.705 -61.1124H372.033M-458.532 -68.0031V-55.3292M-452.749 -61.1124H-465.421M1083.87 240.578V253.252M1089.66 247.469H1076.98M1524.91 240.578V253.252M1530.69 247.469H1518.02M995.993 -420.668V-407.994M1001.78 -413.777H989.104M158.54 -420.668V-407.994M164.322 -413.777H151.65M511.152 240.578V253.252M516.934 247.469H504.262M-326.302 240.578V253.252M-320.52 247.469H-333.192M819.415 240.578V253.252M825.197 247.469H812.525M-18.0392 240.578V253.252M-12.2568 247.469H-24.9288M1392.68 -420.668V-407.994M1398.46 -413.777H1385.79M731.534 -68.0031V-55.3292M737.317 -61.1124H724.645M-105.919 -68.0031V-55.3292M-100.137 -61.1124H-112.809M378.922 -420.668V-407.994M384.705 -413.777H372.033M-458.532 -420.668V-407.994M-452.749 -413.777H-465.421M951.644 240.578V253.252M957.427 247.469H944.755M114.19 240.578V253.252M119.973 247.469H107.301M1260.45 240.578V253.252M1266.23 247.469H1253.56M731.534 -420.668V-407.994M737.317 -413.777H724.645M-105.919 -420.668V-407.994M-100.137 -413.777H-112.809M246.693 240.578V253.252M252.475 247.469H239.803M-590.761 240.578V253.252M-584.979 247.469H-597.651M687.185 240.578V253.252M692.967 247.469H680.295M-150.269 240.578V253.252M-144.486 247.469H-157.158M1612.79 505.077V517.751M1618.57 511.968H1605.9M1524.91 -68.0031V-55.3292M1530.69 -61.1124H1518.02M599.032 505.077V517.751M604.814 511.968H592.142M-238.422 505.077V517.751M-232.639 511.968H-245.311M1128.22 196.495V209.169M1134.01 203.386H1121.33M1612.79 152.412V165.086M1618.57 159.303H1605.9M1128.22 593.243V605.917M1134.01 600.134H1121.33M599.032 152.412V165.086M604.814 159.303H592.142M-238.422 152.412V165.086M-232.639 159.303H-245.311M863.764 196.495V209.169M869.546 203.386H856.874M26.3101 196.495V209.169M32.0925 203.386H19.4205M1348.33 505.077V517.751M1354.12 511.968H1341.44M511.152 -68.0031V-55.3292M516.934 -61.1124H504.262M-326.302 -68.0031V-55.3292M-320.52 -61.1124H-333.192M334.573 505.077V517.751M340.355 511.968H327.683M-502.881 505.077V517.751M-497.098 511.968H-509.77M995.993 196.495V209.169M1001.78 203.386H989.104M158.54 196.495V209.169M164.322 203.386H151.65M1348.33 152.412V165.086M1354.12 159.303H1341.44M1128.22 -332.502V-319.828M1134.01 -325.611H1121.33M334.573 152.412V165.086M340.355 159.303H327.683M-502.881 152.412V165.086M-497.098 159.303H-509.77M731.534 196.495V209.169M737.317 203.386H724.645M-105.919 196.495V209.169M-100.137 203.386H-112.809M1480.56 505.077V517.751M1486.34 511.968H1473.67M1524.91 -420.668V-407.994M1530.69 -413.777H1518.02M466.802 505.077V517.751M472.585 511.968H459.913M-370.651 505.077V517.751M-364.869 511.968H-377.541M1128.22 284.661V297.335M1134.01 291.552H1121.33M1480.56 152.412V165.086M1486.34 159.303H1473.67M863.764 593.243V605.917M869.546 600.134H856.874M26.3101 593.243V605.917M32.0925 600.134H19.4205M466.802 152.412V165.086M472.585 159.303H459.913M-370.651 152.412V165.086M-364.869 159.303H-377.541M863.764 284.661V297.335M869.546 291.552H856.874M26.3101 284.661V297.335M32.0925 291.552H19.4205M1216.1 505.077V517.751M1221.89 511.968H1209.21M511.152 -420.668V-407.994M516.934 -413.777H504.262M-326.302 -420.668V-407.994M-320.52 -413.777H-333.192M202.343 505.077V517.751M208.126 511.968H195.454M-635.11 505.077L-635.11 517.751M-629.328 511.968H-642M995.993 284.661V297.335M1001.78 291.552H989.104M158.54 284.661V297.335M164.322 291.552H151.65M1216.1 152.412V165.086M1221.89 159.303H1209.21M863.764 -332.502V-319.828M869.546 -325.611H856.874M26.3101 -332.502V-319.828M32.0925 -325.611H19.4205M202.343 152.412V165.086M208.126 159.303H195.454M-635.11 152.412L-635.11 165.086M-629.328 159.303H-642M731.534 284.661V297.335M737.317 291.552H724.645M-105.919 284.661V297.335M-100.137 291.552H-112.809M1260.45 -68.0031V-55.3292M1266.23 -61.1124H1253.56M995.993 593.243V605.917M1001.78 600.134H989.104M158.54 593.243V605.917M164.322 600.134H151.65M246.693 -68.0031V-55.3292M252.475 -61.1124H239.803M-590.761 -68.0031V-55.3292M-584.979 -61.1124H-597.651M1083.87 196.495V209.169M1089.66 203.386H1076.98M1612.79 240.578V253.252M1618.57 247.469H1605.9M995.993 -332.502V-319.828M1001.78 -325.611H989.104M158.54 -332.502V-319.828M164.322 -325.611H151.65M599.032 240.578V253.252M604.814 247.469H592.142M-238.422 240.578V253.252M-232.639 247.469H-245.311M819.415 196.495V209.169M825.197 203.386H812.525M-18.0392 196.495V209.169M-12.2568 203.386H-24.9288M1260.45 -420.668V-407.994M1266.23 -413.777H1253.56M731.534 593.243V605.917M737.317 600.134H724.645M-105.919 593.243V605.917M-100.137 600.134H-112.809M246.693 -420.668V-407.994M252.475 -413.777H239.803M-590.761 -420.668V-407.994M-584.979 -413.777H-597.651M951.644 196.495V209.169M957.427 203.386H944.755M114.19 196.495V209.169M119.973 203.386H107.301M1348.33 240.578V253.252M1354.12 247.469H1341.44M731.534 -332.502V-319.828M737.317 -325.611H724.645M-105.919 -332.502V-319.828M-100.137 -325.611H-112.809M334.573 240.578V253.252M340.355 247.469H327.683M-502.881 240.578V253.252M-497.098 247.469H-509.77M687.185 196.495V209.169M692.967 203.386H680.295M-150.269 196.495V209.169M-144.486 203.386H-157.158M1657.14 593.243V605.917M1662.92 600.134H1650.25M1083.87 -68.0031V-55.3292M1089.66 -61.1124H1076.98M643.381 593.243V605.917M649.164 600.134H636.492M-194.072 593.243V605.917M-188.29 600.134H-200.962M1083.87 284.661V297.335M1089.66 291.552H1076.98M1480.56 240.578V253.252M1486.34 247.469H1473.67M1083.87 -420.668V-407.994M1089.66 -413.777H1076.98M466.802 240.578V253.252M472.585 247.469H459.913M-370.651 240.578V253.252M-364.869 247.469H-377.541M819.415 284.661V297.335M825.197 291.552H812.525M-18.0392 284.661V297.335M-12.2568 291.552H-24.9288M1657.14 -332.502V-319.828M1662.92 -325.611H1650.25M819.415 -68.0031V-55.3292M825.197 -61.1124H812.525M-18.0392 -68.0031V-55.3292M-12.2568 -61.1124H-24.9288M643.381 -332.502V-319.828M649.164 -325.611H636.492M-194.072 -332.502V-319.828M-188.29 -325.611H-200.962M951.644 284.661V297.335M957.427 291.552H944.755M114.19 284.661V297.335M119.973 291.552H107.301M1216.1 240.578V253.252M1221.89 247.469H1209.21M819.415 -420.668V-407.994M825.197 -413.777H812.525M-18.0392 -420.668V-407.994M-12.2568 -413.777H-24.9288M202.343 240.578V253.252M208.126 247.469H195.454M-635.11 240.578L-635.11 253.252M-629.328 247.469H-642M687.185 284.661V297.335M692.967 291.552H680.295M-150.269 284.661V297.335M-144.486 291.552H-157.158M1392.68 593.243V605.917M1398.46 600.134H1385.79M951.644 -68.0031V-55.3292M957.427 -61.1124H944.755M114.19 -68.0031V-55.3292M119.973 -61.1124H107.301M1657.14 196.495V209.169M1662.92 203.386H1650.25M643.381 196.495V209.169M649.164 203.386H636.492M-194.072 196.495V209.169M-188.29 203.386H-200.962M378.922 593.243V605.917M384.705 600.134H372.033M-458.532 593.243V605.917M-452.749 600.134H-465.421M951.644 -420.668V-407.994M957.427 -413.777H944.755M114.19 -420.668V-407.994M119.973 -413.777H107.301M1392.68 196.495V209.169M1398.46 203.386H1385.79M378.922 196.495V209.169M384.705 203.386H372.033M-458.532 196.495V209.169M-452.749 203.386H-465.421M1392.68 -332.502V-319.828M1398.46 -325.611H1385.79M907.84 505.077V517.751M913.623 511.968H900.951M70.3867 505.077V517.751M76.169 511.968H63.497M687.185 -68.0031V-55.3292M692.967 -61.1124H680.295M-150.269 -68.0031V-55.3292M-144.486 -61.1124H-157.158M907.84 152.412V165.086M913.623 159.303H900.951M70.3867 152.412V165.086M76.169 159.303H63.497M1524.91 196.495V209.169M1530.69 203.386H1518.02M378.922 -332.502V-319.828M384.705 -325.611H372.033M-458.532 -332.502V-319.828M-452.749 -325.611H-465.421M511.152 196.495V209.169M516.934 203.386H504.262M-326.302 196.495V209.169M-320.52 203.386H-333.192M907.84 196.495V209.169M913.623 203.386H900.951M70.3867 196.495V209.169M76.169 203.386H63.497M687.185 -420.668V-407.994M692.967 -413.777H680.295M-150.269 -420.668V-407.994M-144.486 -413.777H-157.158M1040.07 505.077V517.751M1045.85 511.968H1033.18M1524.91 593.243V605.917M1530.69 600.134H1518.02M1040.07 152.412V165.086M1045.85 159.303H1033.18M1260.45 196.495V209.169M1266.23 203.386H1253.56M1083.87 593.243V605.917M1089.66 600.134H1076.98M246.693 196.495V209.169M252.475 203.386H239.803M-590.761 196.495V209.169M-584.979 203.386H-597.651M1040.07 196.495V209.169M1045.85 203.386H1033.18M511.152 593.243V605.917M516.934 600.134H504.262M-326.302 593.243V605.917M-320.52 600.134H-333.192M775.611 505.077V517.751M781.393 511.968H768.721M-61.8429 505.077V517.751M-56.0605 511.968H-68.7325M1083.87 -332.502V-319.828M1089.66 -325.611H1076.98M775.611 152.412V165.086M781.393 159.303H768.721M-61.8429 152.412V165.086M-56.0605 159.303H-68.7325M1657.14 284.661V297.335M1662.92 291.552H1650.25M1524.91 -332.502V-319.828M1530.69 -325.611H1518.02M643.381 284.661V297.335M649.164 291.552H636.492M-194.072 284.661V297.335M-188.29 291.552H-200.962M775.611 196.495V209.169M781.393 203.386H768.721M-61.8429 196.495V209.169M-56.0605 203.386H-68.7325M819.415 593.243V605.917M825.197 600.134H812.525M-18.0392 593.243V605.917M-12.2568 600.134H-24.9288M511.152 -332.502V-319.828M516.934 -325.611H504.262M-326.302 -332.502V-319.828M-320.52 -325.611H-333.192M1392.68 284.661V297.335M1398.46 291.552H1385.79M378.922 284.661V297.335M384.705 291.552H372.033M-458.532 284.661V297.335M-452.749 291.552H-465.421M819.415 -332.502V-319.828M825.197 -325.611H812.525M-18.0392 -332.502V-319.828M-12.2568 -325.611H-24.9288M1260.45 593.243V605.917M1266.23 600.134H1253.56M1524.91 284.661V297.335M1530.69 291.552H1518.02M511.152 284.661V297.335M516.934 291.552H504.262M-326.302 284.661V297.335M-320.52 291.552H-333.192M951.644 593.243V605.917M957.427 600.134H944.755M114.19 593.243V605.917M119.973 600.134H107.301M246.693 593.243V605.917M252.475 600.134H239.803M-590.761 593.243V605.917M-584.979 600.134H-597.651M951.644 -332.502V-319.828M957.427 -325.611H944.755M114.19 -332.502V-319.828M119.973 -325.611H107.301M907.84 240.578V253.252M913.623 247.469H900.951M70.3867 240.578V253.252M76.169 247.469H63.497M1260.45 284.661V297.335M1266.23 291.552H1253.56M1260.45 -332.502V-319.828M1266.23 -325.611H1253.56M246.693 284.661V297.335M252.475 291.552H239.803M-590.761 284.661V297.335M-584.979 291.552H-597.651M907.84 284.661V297.335M913.623 291.552H900.951M70.3867 284.661V297.335M76.169 291.552H63.497M687.185 593.243V605.917M692.967 600.134H680.295M-150.269 593.243V605.917M-144.486 600.134H-157.158M246.693 -332.502V-319.828M252.475 -325.611H239.803M-590.761 -332.502V-319.828M-584.979 -325.611H-597.651M687.185 -332.502V-319.828M692.967 -325.611H680.295M-150.269 -332.502V-319.828M-144.486 -325.611H-157.158M1040.07 240.578V253.252M1045.85 247.469H1033.18M1612.79 196.495V209.169M1618.57 203.386H1605.9M1612.79 -68.0031V-55.3292M1618.57 -61.1124H1605.9M599.032 196.495V209.169M604.814 203.386H592.142M-238.422 196.495V209.169M-232.639 203.386H-245.311M1040.07 284.661V297.335M1045.85 291.552H1033.18M1128.22 549.16V561.834M1134.01 556.051H1121.33M599.032 -68.0031V-55.3292M604.814 -61.1124H592.142M-238.422 -68.0031V-55.3292M-232.639 -61.1124H-245.311M1128.22 -376.585V-363.911M1134.01 -369.694H1121.33M775.611 240.578V253.252M781.393 247.469H768.721M-61.8429 240.578V253.252M-56.0605 247.469H-68.7325M1348.33 196.495V209.169M1354.12 203.386H1341.44M1612.79 -420.668V-407.994M1618.57 -413.777H1605.9M334.573 196.495V209.169M340.355 203.386H327.683M-502.881 196.495V209.169M-497.098 203.386H-509.77M775.611 284.661V297.335M781.393 291.552H768.721M-61.8429 284.661V297.335M-56.0605 291.552H-68.7325M863.764 549.16V561.834M869.546 556.051H856.874M26.3101 549.16V561.834M32.0925 556.051H19.4205M1128.22 328.745V341.418M1134.01 335.635H1121.33M599.032 -420.668V-407.994M604.814 -413.777H592.142M-238.422 -420.668V-407.994M-232.639 -413.777H-245.311M1128.22 -23.92V-11.2462M1134.01 -17.0294H1121.33M1480.56 196.495V209.169M1486.34 203.386H1473.67M863.764 328.745V341.418M869.546 335.635H856.874M26.3101 328.745V341.418M32.0925 335.635H19.4205M466.802 196.495V209.169M472.585 203.386H459.913M-370.651 196.495V209.169M-364.869 203.386H-377.541M863.764 -23.92V-11.2462M869.546 -17.0294H856.874M26.3101 -23.92V-11.2462M32.0925 -17.0294H19.4205M863.764 -376.585V-363.911M869.546 -369.694H856.874M26.3101 -376.585V-363.911M32.0925 -369.694H19.4205M995.993 328.745V341.418M1001.78 335.635H989.104M158.54 328.745V341.418M164.322 335.635H151.65M1348.33 -68.0031V-55.3292M1354.12 -61.1124H1341.44M995.993 -23.92V-11.2462M1001.78 -17.0294H989.104M158.54 -23.92V-11.2462M164.322 -17.0294H151.65M1216.1 196.495V209.169M1221.89 203.386H1209.21M731.534 328.745V341.418M737.317 335.635H724.645M-105.919 328.745V341.418M-100.137 335.635H-112.809M202.343 196.495V209.169M208.126 203.386H195.454M-635.11 196.495L-635.11 209.169M-629.328 203.386H-642M731.534 -23.92V-11.2462M737.317 -17.0294H724.645M-105.919 -23.92V-11.2462M-100.137 -17.0294H-112.809M995.993 549.16V561.834M1001.78 556.051H989.104M158.54 549.16V561.834M164.322 556.051H151.65M1128.22 416.911V429.585M1134.01 423.801H1121.33M334.573 -68.0031V-55.3292M340.355 -61.1124H327.683M-502.881 -68.0031V-55.3292M-497.098 -61.1124H-509.77M1128.22 64.2462V76.92M1134.01 71.1368H1121.33M1612.79 284.661V297.335M1618.57 291.552H1605.9M863.764 416.911V429.585M869.546 423.801H856.874M26.3101 416.911V429.585M32.0925 423.801H19.4205M599.032 284.661V297.335M604.814 291.552H592.142M-238.422 284.661V297.335M-232.639 291.552H-245.311M863.764 64.2462V76.92M869.546 71.1368H856.874M26.3101 64.2462V76.92M32.0925 71.1368H19.4205M995.993 -376.585V-363.911M1001.78 -369.694H989.104M158.54 -376.585V-363.911M164.322 -369.694H151.65M995.993 416.911V429.585M1001.78 423.801H989.104M158.54 416.911V429.585M164.322 423.801H151.65M1348.33 -420.668V-407.994M1354.12 -413.777H1341.44M995.993 64.2462V76.92M1001.78 71.1368H989.104M158.54 64.2462V76.92M164.322 71.1368H151.65M1348.33 284.661V297.335M1354.12 291.552H1341.44M731.534 416.911V429.585M737.317 423.801H724.645M-105.919 416.911V429.585M-100.137 423.801H-112.809M334.573 284.661V297.335M340.355 291.552H327.683M-502.881 284.661V297.335M-497.098 291.552H-509.77M731.534 64.2462V76.92M737.317 71.1368H724.645M-105.919 64.2462V76.92M-100.137 71.1368H-112.809M731.534 549.16V561.834M737.317 556.051H724.645M-105.919 549.16V561.834M-100.137 556.051H-112.809M1083.87 328.745V341.418M1089.66 335.635H1076.98M334.573 -420.668V-407.994M340.355 -413.777H327.683M-502.881 -420.668V-407.994M-497.098 -413.777H-509.77M1083.87 -23.92V-11.2462M1089.66 -17.0294H1076.98M1480.56 284.661V297.335M1486.34 291.552H1473.67M819.415 328.745V341.418M825.197 335.635H812.525M-18.0392 328.745V341.418M-12.2568 335.635H-24.9288M466.802 284.661V297.335M472.585 291.552H459.913M-370.651 284.661V297.335M-364.869 291.552H-377.541M819.415 -23.92V-11.2462M825.197 -17.0294H812.525M-18.0392 -23.92V-11.2462M-12.2568 -17.0294H-24.9288M731.534 -376.585V-363.911M737.317 -369.694H724.645M-105.919 -376.585V-363.911M-100.137 -369.694H-112.809M951.644 328.745V341.418M957.427 335.635H944.755M114.19 328.745V341.418M119.973 335.635H107.301M1480.56 -68.0031V-55.3292M1486.34 -61.1124H1473.67M951.644 -23.92V-11.2462M957.427 -17.0294H944.755M114.19 -23.92V-11.2462M119.973 -17.0294H107.301M1216.1 284.661V297.335M1221.89 291.552H1209.21M687.185 328.745V341.418M692.967 335.635H680.295M-150.269 328.745V341.418M-144.486 335.635H-157.158M202.343 284.661V297.335M208.126 291.552H195.454M-635.11 284.661L-635.11 297.335M-629.328 291.552H-642M687.185 -23.92V-11.2462M692.967 -17.0294H680.295M-150.269 -23.92V-11.2462M-144.486 -17.0294H-157.158M1701.22 505.077V517.751M1707 511.968H1694.33M1083.87 416.911V429.585M1089.66 423.801H1076.98M1172.3 505.077V517.751M1178.08 511.968H1165.41M1083.87 64.2462V76.92M1089.66 71.1368H1076.98M1701.22 152.412V165.086M1707 159.303H1694.33M819.415 416.911V429.585M825.197 423.801H812.525M-18.0392 416.911V429.585M-12.2568 423.801H-24.9288M1172.3 152.412V165.086M1178.08 159.303H1165.41M819.415 64.2462V76.92M825.197 71.1368H812.525M-18.0392 64.2462V76.92M-12.2568 71.1368H-24.9288M1128.22 637.326V650M1134.01 644.217H1121.33M951.644 416.911V429.585M957.427 423.801H944.755M114.19 416.911V429.585M119.973 423.801H107.301M466.802 -68.0031V-55.3292M472.585 -61.1124H459.913M-370.651 -68.0031V-55.3292M-364.869 -61.1124H-377.541M951.644 64.2462V76.92M957.427 71.1368H944.755M114.19 64.2462V76.92M119.973 71.1368H107.301M1701.22 196.495V209.169M1707 203.386H1694.33M687.185 416.911V429.585M692.967 423.801H680.295M-150.269 416.911V429.585M-144.486 423.801H-157.158M1172.3 196.495V209.169M1178.08 203.386H1165.41M687.185 64.2462V76.92M692.967 71.1368H680.295M-150.269 64.2462V76.92M-144.486 71.1368H-157.158M1436.76 505.077V517.751M1442.54 511.968H1429.87M1128.22 372.828V385.502M1134.01 379.718H1121.33M422.999 505.077V517.751M428.781 511.968H416.109M-414.455 505.077V517.751M-408.673 511.968H-421.345M1128.22 20.1631V32.8369M1134.01 27.0537H1121.33M1436.76 152.412V165.086M1442.54 159.303H1429.87M863.764 372.828V385.502M869.546 379.718H856.874M26.3101 372.828V385.502M32.0925 379.718H19.4205M422.999 152.412V165.086M428.781 159.303H416.109M-414.455 152.412V165.086M-408.673 159.303H-421.345M863.764 20.1631V32.8369M869.546 27.0537H856.874M26.3101 20.1631V32.8369M32.0925 27.0537H19.4205M1128.22 -288.418V-275.745M1134.01 -281.528H1121.33M995.993 372.828V385.502M1001.78 379.718H989.104M158.54 372.828V385.502M164.322 379.718H151.65M1480.56 -420.668V-407.994M1486.34 -413.777H1473.67M995.993 20.1631V32.8369M1001.78 27.0537H989.104M158.54 20.1631V32.8369M164.322 27.0537H151.65M1436.76 196.495V209.169M1442.54 203.386H1429.87M731.534 372.828V385.502M737.317 379.718H724.645M-105.919 372.828V385.502M-100.137 379.718H-112.809M422.999 196.495V209.169M428.781 203.386H416.109M-414.455 196.495V209.169M-408.673 203.386H-421.345M731.534 20.1631V32.8369M737.317 27.0537H724.645M-105.919 20.1631V32.8369M-100.137 27.0537H-112.809M1568.99 505.077V517.751M1574.77 511.968H1562.1M1128.22 460.994V473.668M1134.01 467.885H1121.33M555.228 505.077V517.751M561.011 511.968H548.339M-282.225 505.077V517.751M-276.443 511.968H-289.115M1128.22 108.329V121.003M1134.01 115.22H1121.33M1568.99 152.412V165.086M1574.77 159.303H1562.1M863.764 460.994V473.668M869.546 467.885H856.874M26.3101 460.994V473.668M32.0925 467.885H19.4205M555.228 152.412V165.086M561.011 159.303H548.339M-282.225 152.412V165.086M-276.443 159.303H-289.115M863.764 108.329V121.003M869.546 115.22H856.874M26.3101 108.329V121.003M32.0925 115.22H19.4205M863.764 637.326V650M869.546 644.217H856.874M26.3101 637.326V650M32.0925 644.217H19.4205M995.993 460.994V473.668M1001.78 467.885H989.104M158.54 460.994V473.668M164.322 467.885H151.65M466.802 -420.668V-407.994M472.585 -413.777H459.913M-370.651 -420.668V-407.994M-364.869 -413.777H-377.541M995.993 108.329V121.003M1001.78 115.22H989.104M158.54 108.329V121.003M164.322 115.22H151.65M1568.99 196.495V209.169M1574.77 203.386H1562.1M731.534 460.994V473.668M737.317 467.885H724.645M-105.919 460.994V473.668M-100.137 467.885H-112.809M555.228 196.495V209.169M561.011 203.386H548.339M-282.225 196.495V209.169M-276.443 203.386H-289.115M731.534 108.329V121.003M737.317 115.22H724.645M-105.919 108.329V121.003M-100.137 115.22H-112.809M1304.53 505.077V517.751M1310.31 511.968H1297.64M1083.87 372.828V385.502M1089.66 379.718H1076.98M290.769 505.077V517.751M296.552 511.968H283.88M-546.685 505.077V517.751M-540.902 511.968H-553.574M1083.87 20.1631V32.8369M1089.66 27.0537H1076.98M1304.53 152.412V165.086M1310.31 159.303H1297.64M819.415 372.828V385.502M825.197 379.718H812.525M-18.0392 372.828V385.502M-12.2568 379.718H-24.9288M290.769 152.412V165.086M296.552 159.303H283.88M-546.685 152.412V165.086M-540.902 159.303H-553.574M819.415 20.1631V32.8369M825.197 27.0537H812.525M-18.0392 20.1631V32.8369M-12.2568 27.0537H-24.9288M863.764 -288.418V-275.745M869.546 -281.528H856.874M26.3101 -288.418V-275.745M32.0925 -281.528H19.4205M951.644 372.828V385.502M957.427 379.718H944.755M114.19 372.828V385.502M119.973 379.718H107.301M1216.1 -68.0031V-55.3292M1221.89 -61.1124H1209.21M951.644 20.1631V32.8369M957.427 27.0537H944.755M114.19 20.1631V32.8369M119.973 27.0537H107.301M1304.53 196.495V209.169M1310.31 203.386H1297.64M687.185 372.828V385.502M692.967 379.718H680.295M-150.269 372.828V385.502M-144.486 379.718H-157.158M290.769 196.495V209.169M296.552 203.386H283.88M-546.685 196.495V209.169M-540.902 203.386H-553.574M687.185 20.1631V32.8369M692.967 27.0537H680.295M-150.269 20.1631V32.8369M-144.486 27.0537H-157.158M995.993 637.326V650M1001.78 644.217H989.104M158.54 637.326V650M164.322 644.217H151.65M1083.87 460.994V473.668M1089.66 467.885H1076.98M202.343 -68.0031V-55.3292M208.126 -61.1124H195.454M-635.11 -68.0031L-635.11 -55.3292M-629.328 -61.1124H-642M1083.87 108.329V121.003M1089.66 115.22H1076.98M1701.22 240.578V253.252M1707 247.469H1694.33M819.415 460.994V473.668M825.197 467.885H812.525M-18.0392 460.994V473.668M-12.2568 467.885H-24.9288M1172.3 240.578V253.252M1178.08 247.469H1165.41M819.415 108.329V121.003M825.197 115.22H812.525M-18.0392 108.329V121.003M-12.2568 115.22H-24.9288M995.993 -288.418V-275.745M1001.78 -281.528H989.104M158.54 -288.418V-275.745M164.322 -281.528H151.65M951.644 460.994V473.668M957.427 467.885H944.755M114.19 460.994V473.668M119.973 467.885H107.301M1216.1 -420.668V-407.994M1221.89 -413.777H1209.21M951.644 108.329V121.003M957.427 115.22H944.755M114.19 108.329V121.003M119.973 115.22H107.301M1701.22 284.661V297.335M1707 291.552H1694.33M687.185 460.994V473.668M692.967 467.885H680.295M-150.269 460.994V473.668M-144.486 467.885H-157.158M1172.3 284.661V297.335M1178.08 291.552H1165.41M687.185 108.329V121.003M692.967 115.22H680.295M-150.269 108.329V121.003M-144.486 115.22H-157.158M731.534 637.326V650M737.317 644.217H724.645M-105.919 637.326V650M-100.137 644.217H-112.809M202.343 -420.668V-407.994M208.126 -413.777H195.454M-635.11 -420.668L-635.11 -407.994M-629.328 -413.777H-642M1436.76 240.578V253.252M1442.54 247.469H1429.87M422.999 240.578V253.252M428.781 247.469H416.109M-414.455 240.578V253.252M-408.673 247.469H-421.345M731.534 -288.418V-275.745M737.317 -281.528H724.645M-105.919 -288.418V-275.745M-100.137 -281.528H-112.809M1612.79 593.243V605.917M1618.57 600.134H1605.9M1436.76 284.661V297.335M1442.54 291.552H1429.87M422.999 284.661V297.335M428.781 291.552H416.109M-414.455 284.661V297.335M-408.673 291.552H-421.345M1083.87 549.16V561.834M1089.66 556.051H1076.98M907.84 328.745V341.418M913.623 335.635H900.951M70.3867 328.745V341.418M76.169 335.635H63.497M599.032 593.243V605.917M604.814 600.134H592.142M-238.422 593.243V605.917M-232.639 600.134H-245.311M907.84 -23.92V-11.2462M913.623 -17.0294H900.951M70.3867 -23.92V-11.2462M76.169 -17.0294H63.497M1568.99 240.578V253.252M1574.77 247.469H1562.1M907.84 372.828V385.502M913.623 379.718H900.951M70.3867 372.828V385.502M76.169 379.718H63.497M555.228 240.578V253.252M561.011 247.469H548.339M-282.225 240.578V253.252M-276.443 247.469H-289.115M907.84 20.1631V32.8369M913.623 27.0537H900.951M70.3867 20.1631V32.8369M76.169 27.0537H63.497M1083.87 -376.585V-363.911M1089.66 -369.694H1076.98M1040.07 328.745V341.418M1045.85 335.635H1033.18M1612.79 -332.502V-319.828M1618.57 -325.611H1605.9M1040.07 -23.92V-11.2462M1045.85 -17.0294H1033.18M1568.99 284.661V297.335M1574.77 291.552H1562.1M1040.07 372.828V385.502M1045.85 379.718H1033.18M555.228 284.661V297.335M561.011 291.552H548.339M-282.225 284.661V297.335M-276.443 291.552H-289.115M1040.07 20.1631V32.8369M1045.85 27.0537H1033.18M819.415 549.16V561.834M825.197 556.051H812.525M-18.0392 549.16V561.834M-12.2568 556.051H-24.9288M775.611 328.745V341.418M781.393 335.635H768.721M-61.8429 328.745V341.418M-56.0605 335.635H-68.7325M599.032 -332.502V-319.828M604.814 -325.611H592.142M-238.422 -332.502V-319.828M-232.639 -325.611H-245.311M775.611 -23.92V-11.2462M781.393 -17.0294H768.721M-61.8429 -23.92V-11.2462M-56.0605 -17.0294H-68.7325M1304.53 240.578V253.252M1310.31 247.469H1297.64M775.611 372.828V385.502M781.393 379.718H768.721M-61.8429 372.828V385.502M-56.0605 379.718H-68.7325M290.769 240.578V253.252M296.552 247.469H283.88M-546.685 240.578V253.252M-540.902 247.469H-553.574M775.611 20.1631V32.8369M781.393 27.0537H768.721M-61.8429 20.1631V32.8369M-56.0605 27.0537H-68.7325M819.415 -376.585V-363.911M825.197 -369.694H812.525M-18.0392 -376.585V-363.911M-12.2568 -369.694H-24.9288M1348.33 593.243V605.917M1354.12 600.134H1341.44M1304.53 284.661V297.335M1310.31 291.552H1297.64M290.769 284.661V297.335M296.552 291.552H283.88M-546.685 284.661V297.335M-540.902 291.552H-553.574M1657.14 328.745V341.418M1662.92 335.635H1650.25M643.381 328.745V341.418M649.164 335.635H636.492M-194.072 328.745V341.418M-188.29 335.635H-200.962M1657.14 -23.92V-11.2462M1662.92 -17.0294H1650.25M643.381 -23.92V-11.2462M649.164 -17.0294H636.492M-194.072 -23.92V-11.2462M-188.29 -17.0294H-200.962M1392.68 328.745V341.418M1398.46 335.635H1385.79M907.84 416.911V429.585M913.623 423.801H900.951M70.3867 416.911V429.585M76.169 423.801H63.497M378.922 328.745V341.418M384.705 335.635H372.033M-458.532 328.745V341.418M-452.749 335.635H-465.421M907.84 64.2462V76.92M913.623 71.1368H900.951M70.3867 64.2462V76.92M76.169 71.1368H63.497M1392.68 -23.92V-11.2462M1398.46 -17.0294H1385.79M907.84 460.994V473.668M913.623 467.885H900.951M70.3867 460.994V473.668M76.169 467.885H63.497M378.922 -23.92V-11.2462M384.705 -17.0294H372.033M-458.532 -23.92V-11.2462M-452.749 -17.0294H-465.421M907.84 108.329V121.003M913.623 115.22H900.951M70.3867 108.329V121.003M76.169 115.22H63.497M1524.91 328.745V341.418M1530.69 335.635H1518.02M1040.07 416.911V429.585M1045.85 423.801H1033.18M511.152 328.745V341.418M516.934 335.635H504.262M-326.302 328.745V341.418M-320.52 335.635H-333.192M1040.07 64.2462V76.92M1045.85 71.1368H1033.18M1524.91 -23.92V-11.2462M1530.69 -17.0294H1518.02M1040.07 460.994V473.668M1045.85 467.885H1033.18M511.152 -23.92V-11.2462M516.934 -17.0294H504.262M-326.302 -23.92V-11.2462M-320.52 -17.0294H-333.192M1040.07 108.329V121.003M1045.85 115.22H1033.18M1260.45 328.745V341.418M1266.23 335.635H1253.56M775.611 416.911V429.585M781.393 423.801H768.721M-61.8429 416.911V429.585M-56.0605 423.801H-68.7325M246.693 328.745V341.418M252.475 335.635H239.803M-590.761 328.745V341.418M-584.979 335.635H-597.651M775.611 64.2462V76.92M781.393 71.1368H768.721M-61.8429 64.2462V76.92M-56.0605 71.1368H-68.7325M1260.45 -23.92V-11.2462M1266.23 -17.0294H1253.56M775.611 460.994V473.668M781.393 467.885H768.721M-61.8429 460.994V473.668M-56.0605 467.885H-68.7325M246.693 -23.92V-11.2462M252.475 -17.0294H239.803M-590.761 -23.92V-11.2462M-584.979 -17.0294H-597.651M775.611 108.329V121.003M781.393 115.22H768.721M-61.8429 108.329V121.003M-56.0605 115.22H-68.7325M1657.14 416.911V429.585M1662.92 423.801H1650.25M643.381 416.911V429.585M649.164 423.801H636.492M-194.072 416.911V429.585M-188.29 423.801H-200.962M1657.14 64.2462V76.92M1662.92 71.1368H1650.25M643.381 64.2462V76.92M649.164 71.1368H636.492M-194.072 64.2462V76.92M-188.29 71.1368H-200.962M1392.68 416.911V429.585M1398.46 423.801H1385.79M378.922 416.911V429.585M384.705 423.801H372.033M-458.532 416.911V429.585M-452.749 423.801H-465.421M1392.68 64.2462V76.92M1398.46 71.1368H1385.79M378.922 64.2462V76.92M384.705 71.1368H372.033M-458.532 64.2462V76.92M-452.749 71.1368H-465.421M1524.91 416.911V429.585M1530.69 423.801H1518.02M511.152 416.911V429.585M516.934 423.801H504.262M-326.302 416.911V429.585M-320.52 423.801H-333.192M1524.91 64.2462V76.92M1530.69 71.1368H1518.02M511.152 64.2462V76.92M516.934 71.1368H504.262M-326.302 64.2462V76.92M-320.52 71.1368H-333.192M1260.45 416.911V429.585M1266.23 423.801H1253.56M246.693 416.911V429.585M252.475 423.801H239.803M-590.761 416.911V429.585M-584.979 423.801H-597.651M1260.45 64.2462V76.92M1266.23 71.1368H1253.56M246.693 64.2462V76.92M252.475 71.1368H239.803M-590.761 64.2462V76.92M-584.979 71.1368H-597.651M1612.79 328.745V341.418M1618.57 335.635H1605.9M599.032 328.745V341.418M604.814 335.635H592.142M-238.422 328.745V341.418M-232.639 335.635H-245.311M1612.79 -23.92V-11.2462M1618.57 -17.0294H1605.9M599.032 -23.92V-11.2462M604.814 -17.0294H592.142M-238.422 -23.92V-11.2462M-232.639 -17.0294H-245.311M1348.33 328.745V341.418M1354.12 335.635H1341.44M334.573 328.745V341.418M340.355 335.635H327.683M-502.881 328.745V341.418M-497.098 335.635H-509.77M1348.33 -23.92V-11.2462M1354.12 -17.0294H1341.44M334.573 -23.92V-11.2462M340.355 -17.0294H327.683M-502.881 -23.92V-11.2462M-497.098 -17.0294H-509.77M1480.56 328.745V341.418M1486.34 335.635H1473.67M466.802 328.745V341.418M472.585 335.635H459.913M-370.651 328.745V341.418M-364.869 335.635H-377.541M1480.56 -23.92V-11.2462M1486.34 -17.0294H1473.67M466.802 -23.92V-11.2462M472.585 -17.0294H459.913M-370.651 -23.92V-11.2462M-364.869 -17.0294H-377.541M1216.1 328.745V341.418M1221.89 335.635H1209.21M202.343 328.745V341.418M208.126 335.635H195.454M-635.11 328.745L-635.11 341.418M-629.328 335.635H-642M1216.1 -23.92V-11.2462M1221.89 -17.0294H1209.21M202.343 -23.92V-11.2462M208.126 -17.0294H195.454M-635.11 -23.92L-635.11 -11.2462M-629.328 -17.0294H-642M1612.79 416.911V429.585M1618.57 423.801H1605.9M599.032 416.911V429.585M604.814 423.801H592.142M-238.422 416.911V429.585M-232.639 423.801H-245.311M1612.79 64.2462V76.92M1618.57 71.1368H1605.9M599.032 64.2462V76.92M604.814 71.1368H592.142M-238.422 64.2462V76.92M-232.639 71.1368H-245.311M1348.33 416.911V429.585M1354.12 423.801H1341.44M334.573 416.911V429.585M340.355 423.801H327.683M-502.881 416.911V429.585M-497.098 423.801H-509.77M1348.33 64.2462V76.92M1354.12 71.1368H1341.44M334.573 64.2462V76.92M340.355 71.1368H327.683M-502.881 64.2462V76.92M-497.098 71.1368H-509.77M1480.56 416.911V429.585M1486.34 423.801H1473.67M466.802 416.911V429.585M472.585 423.801H459.913M-370.651 416.911V429.585M-364.869 423.801H-377.541M1480.56 64.2462V76.92M1486.34 71.1368H1473.67M466.802 64.2462V76.92M472.585 71.1368H459.913M-370.651 64.2462V76.92M-364.869 71.1368H-377.541M1216.1 416.911V429.585M1221.89 423.801H1209.21M202.343 416.911V429.585M208.126 423.801H195.454M-635.11 416.911L-635.11 429.585M-629.328 423.801H-642M1216.1 64.2462V76.92M1221.89 71.1368H1209.21M202.343 64.2462V76.92M208.126 71.1368H195.454M-635.11 64.2462L-635.11 76.92M-629.328 71.1368H-642M1657.14 372.828V385.502M1662.92 379.718H1650.25M643.381 372.828V385.502M649.164 379.718H636.492M-194.072 372.828V385.502M-188.29 379.718H-200.962M1657.14 20.1631V32.8369M1662.92 27.0537H1650.25M643.381 20.1631V32.8369M649.164 27.0537H636.492M-194.072 20.1631V32.8369M-188.29 27.0537H-200.962M1392.68 372.828V385.502M1398.46 379.718H1385.79M378.922 372.828V385.502M384.705 379.718H372.033M-458.532 372.828V385.502M-452.749 379.718H-465.421M1392.68 20.1631V32.8369M1398.46 27.0537H1385.79M378.922 20.1631V32.8369M384.705 27.0537H372.033M-458.532 20.1631V32.8369M-452.749 27.0537H-465.421M1524.91 372.828V385.502M1530.69 379.718H1518.02M511.152 372.828V385.502M516.934 379.718H504.262M-326.302 372.828V385.502M-320.52 379.718H-333.192M1524.91 20.1631V32.8369M1530.69 27.0537H1518.02M511.152 20.1631V32.8369M516.934 27.0537H504.262M-326.302 20.1631V32.8369M-320.52 27.0537H-333.192M1260.45 372.828V385.502M1266.23 379.718H1253.56M246.693 372.828V385.502M252.475 379.718H239.803M-590.761 372.828V385.502M-584.979 379.718H-597.651M1260.45 20.1631V32.8369M1266.23 27.0537H1253.56M246.693 20.1631V32.8369M252.475 27.0537H239.803M-590.761 20.1631V32.8369M-584.979 27.0537H-597.651M1657.14 460.994V473.668M1662.92 467.885H1650.25M643.381 460.994V473.668M649.164 467.885H636.492M-194.072 460.994V473.668M-188.29 467.885H-200.962M1657.14 108.329V121.003M1662.92 115.22H1650.25M643.381 108.329V121.003M649.164 115.22H636.492M-194.072 108.329V121.003M-188.29 115.22H-200.962M1392.68 460.994V473.668M1398.46 467.885H1385.79M378.922 460.994V473.668M384.705 467.885H372.033M-458.532 460.994V473.668M-452.749 467.885H-465.421M1392.68 108.329V121.003M1398.46 115.22H1385.79M378.922 108.329V121.003M384.705 115.22H372.033M-458.532 108.329V121.003M-452.749 115.22H-465.421M1524.91 460.994V473.668M1530.69 467.885H1518.02M511.152 460.994V473.668M516.934 467.885H504.262M-326.302 460.994V473.668M-320.52 467.885H-333.192M1524.91 108.329V121.003M1530.69 115.22H1518.02M511.152 108.329V121.003M516.934 115.22H504.262M-326.302 108.329V121.003M-320.52 115.22H-333.192M1260.45 460.994V473.668M1266.23 467.885H1253.56M246.693 460.994V473.668M252.475 467.885H239.803M-590.761 460.994V473.668M-584.979 467.885H-597.651M1260.45 108.329V121.003M1266.23 115.22H1253.56M246.693 108.329V121.003M252.475 115.22H239.803M-590.761 108.329V121.003M-584.979 115.22H-597.651M1612.79 372.828V385.502M1618.57 379.718H1605.9M599.032 372.828V385.502M604.814 379.718H592.142M-238.422 372.828V385.502M-232.639 379.718H-245.311M1612.79 20.1631V32.8369M1618.57 27.0537H1605.9M599.032 20.1631V32.8369M604.814 27.0537H592.142M-238.422 20.1631V32.8369M-232.639 27.0537H-245.311M1348.33 372.828V385.502M1354.12 379.718H1341.44M334.573 372.828V385.502M340.355 379.718H327.683M-502.881 372.828V385.502M-497.098 379.718H-509.77M1348.33 20.1631V32.8369M1354.12 27.0537H1341.44M334.573 20.1631V32.8369M340.355 27.0537H327.683M-502.881 20.1631V32.8369M-497.098 27.0537H-509.77M1480.56 372.828V385.502M1486.34 379.718H1473.67M466.802 372.828V385.502M472.585 379.718H459.913M-370.651 372.828V385.502M-364.869 379.718H-377.541M1480.56 20.1631V32.8369M1486.34 27.0537H1473.67M466.802 20.1631V32.8369M472.585 27.0537H459.913M-370.651 20.1631V32.8369M-364.869 27.0537H-377.541M1216.1 372.828V385.502M1221.89 379.718H1209.21M202.343 372.828V385.502M208.126 379.718H195.454M-635.11 372.828L-635.11 385.502M-629.328 379.718H-642M1216.1 20.1631V32.8369M1221.89 27.0537H1209.21M202.343 20.1631V32.8369M208.126 27.0537H195.454M-635.11 20.1631L-635.11 32.8369M-629.328 27.0537H-642M1612.79 460.994V473.668M1618.57 467.885H1605.9M599.032 460.994V473.668M604.814 467.885H592.142M-238.422 460.994V473.668M-232.639 467.885H-245.311M1612.79 108.329V121.003M1618.57 115.22H1605.9M599.032 108.329V121.003M604.814 115.22H592.142M-238.422 108.329V121.003M-232.639 115.22H-245.311M1348.33 460.994V473.668M1354.12 467.885H1341.44M334.573 460.994V473.668M340.355 467.885H327.683M-502.881 460.994V473.668M-497.098 467.885H-509.77M1348.33 108.329V121.003M1354.12 115.22H1341.44M334.573 108.329V121.003M340.355 115.22H327.683M-502.881 108.329V121.003M-497.098 115.22H-509.77M1480.56 460.994V473.668M1486.34 467.885H1473.67M466.802 460.994V473.668M472.585 467.885H459.913M-370.651 460.994V473.668M-364.869 467.885H-377.541M1480.56 108.329V121.003M1486.34 115.22H1473.67M466.802 108.329V121.003M472.585 115.22H459.913M-370.651 108.329V121.003M-364.869 115.22H-377.541M1216.1 460.994V473.668M1221.89 467.885H1209.21M202.343 460.994V473.668M208.126 467.885H195.454M-635.11 460.994L-635.11 473.668M-629.328 467.885H-642M1216.1 108.329V121.003M1221.89 115.22H1209.21M202.343 108.329V121.003M208.126 115.22H195.454M-635.11 108.329L-635.11 121.003M-629.328 115.22H-642M1701.22 328.745V341.418M1707 335.635H1694.33M1172.3 328.745V341.418M1178.08 335.635H1165.41M1701.22 -23.92V-11.2462M1707 -17.0294H1694.33M1172.3 -23.92V-11.2462M1178.08 -17.0294H1165.41M1701.22 372.828V385.502M1707 379.718H1694.33M1172.3 372.828V385.502M1178.08 379.718H1165.41M1701.22 20.1631V32.8369M1707 27.0537H1694.33M1172.3 20.1631V32.8369M1178.08 27.0537H1165.41M1436.76 328.745V341.418M1442.54 335.635H1429.87M422.999 328.745V341.418M428.781 335.635H416.109M-414.455 328.745V341.418M-408.673 335.635H-421.345M1436.76 -23.92V-11.2462M1442.54 -17.0294H1429.87M422.999 -23.92V-11.2462M428.781 -17.0294H416.109M-414.455 -23.92V-11.2462M-408.673 -17.0294H-421.345M1436.76 372.828V385.502M1442.54 379.718H1429.87M422.999 372.828V385.502M428.781 379.718H416.109M-414.455 372.828V385.502M-408.673 379.718H-421.345M1436.76 20.1631V32.8369M1442.54 27.0537H1429.87M422.999 20.1631V32.8369M428.781 27.0537H416.109M-414.455 20.1631V32.8369M-408.673 27.0537H-421.345M1568.99 328.745V341.418M1574.77 335.635H1562.1M555.228 328.745V341.418M561.011 335.635H548.339M-282.225 328.745V341.418M-276.443 335.635H-289.115M1568.99 -23.92V-11.2462M1574.77 -17.0294H1562.1M555.228 -23.92V-11.2462M561.011 -17.0294H548.339M-282.225 -23.92V-11.2462M-276.443 -17.0294H-289.115M1568.99 372.828V385.502M1574.77 379.718H1562.1M555.228 372.828V385.502M561.011 379.718H548.339M-282.225 372.828V385.502M-276.443 379.718H-289.115M1568.99 20.1631V32.8369M1574.77 27.0537H1562.1M555.228 20.1631V32.8369M561.011 27.0537H548.339M-282.225 20.1631V32.8369M-276.443 27.0537H-289.115M1304.53 328.745V341.418M1310.31 335.635H1297.64M290.769 328.745V341.418M296.552 335.635H283.88M-546.685 328.745V341.418M-540.902 335.635H-553.574M1304.53 -23.92V-11.2462M1310.31 -17.0294H1297.64M290.769 -23.92V-11.2462M296.552 -17.0294H283.88M-546.685 -23.92V-11.2462M-540.902 -17.0294H-553.574M1304.53 372.828V385.502M1310.31 379.718H1297.64M290.769 372.828V385.502M296.552 379.718H283.88M-546.685 372.828V385.502M-540.902 379.718H-553.574M1304.53 20.1631V32.8369M1310.31 27.0537H1297.64M290.769 20.1631V32.8369M296.552 27.0537H283.88M-546.685 20.1631V32.8369M-540.902 27.0537H-553.574M1701.22 416.911V429.585M1707 423.801H1694.33M1172.3 416.911V429.585M1178.08 423.801H1165.41M1701.22 64.2462V76.92M1707 71.1368H1694.33M1172.3 64.2462V76.92M1178.08 71.1368H1165.41M1701.22 460.994V473.668M1707 467.885H1694.33M1172.3 460.994V473.668M1178.08 467.885H1165.41M1701.22 108.329V121.003M1707 115.22H1694.33M1172.3 108.329V121.003M1178.08 115.22H1165.41M1436.76 416.911V429.585M1442.54 423.801H1429.87M422.999 416.911V429.585M428.781 423.801H416.109M-414.455 416.911V429.585M-408.673 423.801H-421.345M1436.76 64.2462V76.92M1442.54 71.1368H1429.87M422.999 64.2462V76.92M428.781 71.1368H416.109M-414.455 64.2462V76.92M-408.673 71.1368H-421.345M1436.76 460.994V473.668M1442.54 467.885H1429.87M422.999 460.994V473.668M428.781 467.885H416.109M-414.455 460.994V473.668M-408.673 467.885H-421.345M1436.76 108.329V121.003M1442.54 115.22H1429.87M422.999 108.329V121.003M428.781 115.22H416.109M-414.455 108.329V121.003M-408.673 115.22H-421.345M1568.99 416.911V429.585M1574.77 423.801H1562.1M555.228 416.911V429.585M561.011 423.801H548.339M-282.225 416.911V429.585M-276.443 423.801H-289.115M1568.99 64.2462V76.92M1574.77 71.1368H1562.1M555.228 64.2462V76.92M561.011 71.1368H548.339M-282.225 64.2462V76.92M-276.443 71.1368H-289.115M1568.99 460.994V473.668M1574.77 467.885H1562.1M555.228 460.994V473.668M561.011 467.885H548.339M-282.225 460.994V473.668M-276.443 467.885H-289.115M1568.99 108.329V121.003M1574.77 115.22H1562.1M555.228 108.329V121.003M561.011 115.22H548.339M-282.225 108.329V121.003M-276.443 115.22H-289.115M1304.53 416.911V429.585M1310.31 423.801H1297.64M290.769 416.911V429.585M296.552 423.801H283.88M-546.685 416.911V429.585M-540.902 423.801H-553.574M1304.53 64.2462V76.92M1310.31 71.1368H1297.64M290.769 64.2462V76.92M296.552 71.1368H283.88M-546.685 64.2462V76.92M-540.902 71.1368H-553.574M1304.53 460.994V473.668M1310.31 467.885H1297.64M290.769 460.994V473.668M296.552 467.885H283.88M-546.685 460.994V473.668M-540.902 467.885H-553.574M1304.53 108.329V121.003M1310.31 115.22H1297.64M290.769 108.329V121.003M296.552 115.22H283.88M-546.685 108.329V121.003M-540.902 115.22H-553.574M951.644 549.16V561.834M957.427 556.051H944.755M114.19 549.16V561.834M119.973 556.051H107.301M334.573 593.243V605.917M340.355 600.134H327.683M-502.881 593.243V605.917M-497.098 600.134H-509.77M951.644 -376.585V-363.911M957.427 -369.694H944.755M114.19 -376.585V-363.911M119.973 -369.694H107.301M1348.33 -332.502V-319.828M1354.12 -325.611H1341.44M687.185 549.16V561.834M692.967 556.051H680.295M-150.269 549.16V561.834M-144.486 556.051H-157.158M334.573 -332.502V-319.828M340.355 -325.611H327.683M-502.881 -332.502V-319.828M-497.098 -325.611H-509.77M687.185 -376.585V-363.911M692.967 -369.694H680.295M-150.269 -376.585V-363.911M-144.486 -369.694H-157.158M1480.56 593.243V605.917M1486.34 600.134H1473.67M1083.87 637.326V650M1089.66 644.217H1076.98M466.802 593.243V605.917M472.585 600.134H459.913M-370.651 593.243V605.917M-364.869 600.134H-377.541M1083.87 -288.418V-275.745M1089.66 -281.528H1076.98M1480.56 -332.502V-319.828M1486.34 -325.611H1473.67M819.415 637.326V650M825.197 644.217H812.525M-18.0392 637.326V650M-12.2568 644.217H-24.9288M466.802 -332.502V-319.828M472.585 -325.611H459.913M-370.651 -332.502V-319.828M-364.869 -325.611H-377.541M819.415 -288.418V-275.745M825.197 -281.528H812.525M-18.0392 -288.418V-275.745M-12.2568 -281.528H-24.9288M1216.1 593.243V605.917M1221.89 600.134H1209.21M951.644 637.326V650M957.427 644.217H944.755M114.19 637.326V650M119.973 644.217H107.301M202.343 593.243V605.917M208.126 600.134H195.454M-635.11 593.243L-635.11 605.917M-629.328 600.134H-642M951.644 -288.418V-275.745M957.427 -281.528H944.755M114.19 -288.418V-275.745M119.973 -281.528H107.301M1216.1 -332.502V-319.828M1221.89 -325.611H1209.21M687.185 637.326V650M692.967 644.217H680.295M-150.269 637.326V650M-144.486 644.217H-157.158M202.343 -332.502V-319.828M208.126 -325.611H195.454M-635.11 -332.502L-635.11 -319.828M-629.328 -325.611H-642M687.185 -288.418V-275.745M692.967 -281.528H680.295M-150.269 -288.418V-275.745M-144.486 -281.528H-157.158M1657.14 549.16V561.834M1662.92 556.051H1650.25M643.381 549.16V561.834M649.164 556.051H636.492M-194.072 549.16V561.834M-188.29 556.051H-200.962M1657.14 -376.585V-363.911M1662.92 -369.694H1650.25M643.381 -376.585V-363.911M649.164 -369.694H636.492M-194.072 -376.585V-363.911M-188.29 -369.694H-200.962M1392.68 549.16V561.834M1398.46 556.051H1385.79M378.922 549.16V561.834M384.705 556.051H372.033M-458.532 549.16V561.834M-452.749 556.051H-465.421M1392.68 -376.585V-363.911M1398.46 -369.694H1385.79M378.922 -376.585V-363.911M384.705 -369.694H372.033M-458.532 -376.585V-363.911M-452.749 -369.694H-465.421M1524.91 549.16V561.834M1530.69 556.051H1518.02M907.84 -68.0031V-55.3292M913.623 -61.1124H900.951M70.3867 -68.0031V-55.3292M76.169 -61.1124H63.497M511.152 549.16V561.834M516.934 556.051H504.262M-326.302 549.16V561.834M-320.52 556.051H-333.192M907.84 -420.668V-407.994M913.623 -413.777H900.951M70.3867 -420.668V-407.994M76.169 -413.777H63.497M1524.91 -376.585V-363.911M1530.69 -369.694H1518.02M907.84 549.16V561.834M913.623 556.051H900.951M70.3867 549.16V561.834M76.169 556.051H63.497M511.152 -376.585V-363.911M516.934 -369.694H504.262M-326.302 -376.585V-363.911M-320.52 -369.694H-333.192M907.84 -376.585V-363.911M913.623 -369.694H900.951M70.3867 -376.585V-363.911M76.169 -369.694H63.497M1260.45 549.16V561.834M1266.23 556.051H1253.56M1040.07 -68.0031V-55.3292M1045.85 -61.1124H1033.18M246.693 549.16V561.834M252.475 556.051H239.803M-590.761 549.16V561.834M-584.979 556.051H-597.651M1040.07 -420.668V-407.994M1045.85 -413.777H1033.18M1260.45 -376.585V-363.911M1266.23 -369.694H1253.56M1040.07 549.16V561.834M1045.85 556.051H1033.18M246.693 -376.585V-363.911M252.475 -369.694H239.803M-590.761 -376.585V-363.911M-584.979 -369.694H-597.651M1040.07 -376.585V-363.911M1045.85 -369.694H1033.18M1657.14 637.326V650M1662.92 644.217H1650.25M775.611 -68.0031V-55.3292M781.393 -61.1124H768.721M-61.8429 -68.0031V-55.3292M-56.0605 -61.1124H-68.7325M643.381 637.326V650M649.164 644.217H636.492M-194.072 637.326V650M-188.29 644.217H-200.962M775.611 -420.668V-407.994M781.393 -413.777H768.721M-61.8429 -420.668V-407.994M-56.0605 -413.777H-68.7325M1657.14 -288.418V-275.745M1662.92 -281.528H1650.25M775.611 549.16V561.834M781.393 556.051H768.721M-61.8429 549.16V561.834M-56.0605 556.051H-68.7325M643.381 -288.418V-275.745M649.164 -281.528H636.492M-194.072 -288.418V-275.745M-188.29 -281.528H-200.962M775.611 -376.585V-363.911M781.393 -369.694H768.721M-61.8429 -376.585V-363.911M-56.0605 -369.694H-68.7325M1392.68 637.326V650M1398.46 644.217H1385.79M378.922 637.326V650M384.705 644.217H372.033M-458.532 637.326V650M-452.749 644.217H-465.421M1392.68 -288.418V-275.745M1398.46 -281.528H1385.79M378.922 -288.418V-275.745M384.705 -281.528H372.033M-458.532 -288.418V-275.745M-452.749 -281.528H-465.421M1524.91 637.326V650M1530.69 644.217H1518.02M511.152 637.326V650M516.934 644.217H504.262M-326.302 637.326V650M-320.52 644.217H-333.192M1524.91 -288.418V-275.745M1530.69 -281.528H1518.02M511.152 -288.418V-275.745M516.934 -281.528H504.262M-326.302 -288.418V-275.745M-320.52 -281.528H-333.192M1260.45 637.326V650M1266.23 644.217H1253.56M907.84 593.243V605.917M913.623 600.134H900.951M70.3867 593.243V605.917M76.169 600.134H63.497M246.693 637.326V650M252.475 644.217H239.803M-590.761 637.326V650M-584.979 644.217H-597.651M907.84 -332.502V-319.828M913.623 -325.611H900.951M70.3867 -332.502V-319.828M76.169 -325.611H63.497M1260.45 -288.418V-275.745M1266.23 -281.528H1253.56M907.84 637.326V650M913.623 644.217H900.951M70.3867 637.326V650M76.169 644.217H63.497M246.693 -288.418V-275.745M252.475 -281.528H239.803M-590.761 -288.418V-275.745M-584.979 -281.528H-597.651M907.84 -288.418V-275.745M913.623 -281.528H900.951M70.3867 -288.418V-275.745M76.169 -281.528H63.497M1612.79 549.16V561.834M1618.57 556.051H1605.9M1040.07 593.243V605.917M1045.85 600.134H1033.18M599.032 549.16V561.834M604.814 556.051H592.142M-238.422 549.16V561.834M-232.639 556.051H-245.311M1040.07 -332.502V-319.828M1045.85 -325.611H1033.18M1612.79 -376.585V-363.911M1618.57 -369.694H1605.9M1040.07 637.326V650M1045.85 644.217H1033.18M599.032 -376.585V-363.911M604.814 -369.694H592.142M-238.422 -376.585V-363.911M-232.639 -369.694H-245.311M1040.07 -288.418V-275.745M1045.85 -281.528H1033.18M1348.33 549.16V561.834M1354.12 556.051H1341.44M775.611 593.243V605.917M781.393 600.134H768.721M-61.8429 593.243V605.917M-56.0605 600.134H-68.7325M334.573 549.16V561.834M340.355 556.051H327.683M-502.881 549.16V561.834M-497.098 556.051H-509.77M775.611 -332.502V-319.828M781.393 -325.611H768.721M-61.8429 -332.502V-319.828M-56.0605 -325.611H-68.7325M1348.33 -376.585V-363.911M1354.12 -369.694H1341.44M775.611 637.326V650M781.393 644.217H768.721M-61.8429 637.326V650M-56.0605 644.217H-68.7325M334.573 -376.585V-363.911M340.355 -369.694H327.683M-502.881 -376.585V-363.911M-497.098 -369.694H-509.77M775.611 -288.418V-275.745M781.393 -281.528H768.721M-61.8429 -288.418V-275.745M-56.0605 -281.528H-68.7325M1480.56 549.16V561.834M1486.34 556.051H1473.67M1128.22 -244.335V-231.661M1134.01 -237.445H1121.33M466.802 549.16V561.834M472.585 556.051H459.913M-370.651 549.16V561.834M-364.869 556.051H-377.541M1128.22 -597V-584.326M1134.01 -590.109L1121.33 -590.109M1480.56 -376.585V-363.911M1486.34 -369.694H1473.67M863.764 -244.335V-231.661M869.546 -237.445H856.874M26.3101 -244.335V-231.661M32.0925 -237.445H19.4205M466.802 -376.585V-363.911M472.585 -369.694H459.913M-370.651 -376.585V-363.911M-364.869 -369.694H-377.541M863.764 -597V-584.326M869.546 -590.109L856.874 -590.109M26.3101 -597V-584.326M32.0925 -590.109L19.4205 -590.109M1216.1 549.16V561.834M1221.89 556.051H1209.21M995.993 -244.335V-231.661M1001.78 -237.445H989.104M158.54 -244.335V-231.661M164.322 -237.445H151.65M202.343 549.16V561.834M208.126 556.051H195.454M-635.11 549.16L-635.11 561.834M-629.328 556.051H-642M995.993 -597V-584.326M1001.78 -590.109L989.104 -590.109M158.54 -597V-584.326M164.322 -590.109L151.65 -590.109M1216.1 -376.585V-363.911M1221.89 -369.694H1209.21M731.534 -244.335V-231.661M737.317 -237.445H724.645M-105.919 -244.335V-231.661M-100.137 -237.445H-112.809M202.343 -376.585V-363.911M208.126 -369.694H195.454M-635.11 -376.585L-635.11 -363.911M-629.328 -369.694H-642M731.534 -597V-584.326M737.317 -590.109L724.645 -590.109M-105.919 -597V-584.326M-100.137 -590.109L-112.809 -590.109M1612.79 637.326V650M1618.57 644.217H1605.9M1128.22 -156.169V-143.495M1134.01 -149.279H1121.33M599.032 637.326V650M604.814 644.217H592.142M-238.422 637.326V650M-232.639 644.217H-245.311M1128.22 -508.834V-496.16M1134.01 -501.943H1121.33M1612.79 -288.418V-275.745M1618.57 -281.528H1605.9M863.764 -156.169V-143.495M869.546 -149.279H856.874M26.3101 -156.169V-143.495M32.0925 -149.279H19.4205M599.032 -288.418V-275.745M604.814 -281.528H592.142M-238.422 -288.418V-275.745M-232.639 -281.528H-245.311M863.764 -508.834V-496.16M869.546 -501.943H856.874M26.3101 -508.834V-496.16M32.0925 -501.943H19.4205M1348.33 637.326V650M1354.12 644.217H1341.44M995.993 -156.169V-143.495M1001.78 -149.279H989.104M158.54 -156.169V-143.495M164.322 -149.279H151.65M334.573 637.326V650M340.355 644.217H327.683M-502.881 637.326V650M-497.098 644.217H-509.77M995.993 -508.834V-496.16M1001.78 -501.943H989.104M158.54 -508.834V-496.16M164.322 -501.943H151.65M1348.33 -288.418V-275.745M1354.12 -281.528H1341.44M731.534 -156.169V-143.495M737.317 -149.279H724.645M-105.919 -156.169V-143.495M-100.137 -149.279H-112.809M334.573 -288.418V-275.745M340.355 -281.528H327.683M-502.881 -288.418V-275.745M-497.098 -281.528H-509.77M731.534 -508.834V-496.16M737.317 -501.943H724.645M-105.919 -508.834V-496.16M-100.137 -501.943H-112.809M1480.56 637.326V650M1486.34 644.217H1473.67M1083.87 -244.335V-231.661M1089.66 -237.445H1076.98M466.802 637.326V650M472.585 644.217H459.913M-370.651 637.326V650M-364.869 644.217H-377.541M1083.87 -597V-584.326M1089.66 -590.109L1076.98 -590.109M1480.56 -288.418V-275.745M1486.34 -281.528H1473.67M819.415 -244.335V-231.661M825.197 -237.445H812.525M-18.0392 -244.335V-231.661M-12.2568 -237.445H-24.9288M466.802 -288.418V-275.745M472.585 -281.528H459.913M-370.651 -288.418V-275.745M-364.869 -281.528H-377.541M819.415 -597V-584.326M825.197 -590.109L812.525 -590.109M-18.0392 -597V-584.326M-12.2568 -590.109L-24.9288 -590.109M1216.1 637.326V650M1221.89 644.217H1209.21M951.644 -244.335V-231.661M957.427 -237.445H944.755M114.19 -244.335V-231.661M119.973 -237.445H107.301M202.343 637.326V650M208.126 644.217H195.454M-635.11 637.326L-635.11 650M-629.328 644.217H-642M951.644 -597V-584.326M957.427 -590.109L944.755 -590.109M114.19 -597V-584.326M119.973 -590.109L107.301 -590.109M1216.1 -288.418V-275.745M1221.89 -281.528H1209.21M687.185 -244.335V-231.661M692.967 -237.445H680.295M-150.269 -244.335V-231.661M-144.486 -237.445H-157.158M202.343 -288.418V-275.745M208.126 -281.528H195.454M-635.11 -288.418L-635.11 -275.745M-629.328 -281.528H-642M687.185 -597V-584.326M692.967 -590.109L680.295 -590.109M-150.269 -597V-584.326M-144.486 -590.109L-157.158 -590.109M1701.22 -68.0031V-55.3292M1707 -61.1124H1694.33M1083.87 -156.169V-143.495M1089.66 -149.279H1076.98M1172.3 -68.0031V-55.3292M1178.08 -61.1124H1165.41M1083.87 -508.834V-496.16M1089.66 -501.943H1076.98M1701.22 -420.668V-407.994M1707 -413.777H1694.33M819.415 -156.169V-143.495M825.197 -149.279H812.525M-18.0392 -156.169V-143.495M-12.2568 -149.279H-24.9288M1172.3 -420.668V-407.994M1178.08 -413.777H1165.41M819.415 -508.834V-496.16M825.197 -501.943H812.525M-18.0392 -508.834V-496.16M-12.2568 -501.943H-24.9288M1701.22 549.16V561.834M1707 556.051H1694.33M951.644 -156.169V-143.495M957.427 -149.279H944.755M114.19 -156.169V-143.495M119.973 -149.279H107.301M1172.3 549.16V561.834M1178.08 556.051H1165.41M951.644 -508.834V-496.16M957.427 -501.943H944.755M114.19 -508.834V-496.16M119.973 -501.943H107.301M1701.22 -376.585V-363.911M1707 -369.694H1694.33M687.185 -156.169V-143.495M692.967 -149.279H680.295M-150.269 -156.169V-143.495M-144.486 -149.279H-157.158M1172.3 -376.585V-363.911M1178.08 -369.694H1165.41M687.185 -508.834V-496.16M692.967 -501.943H680.295M-150.269 -508.834V-496.16M-144.486 -501.943H-157.158M1436.76 -68.0031V-55.3292M1442.54 -61.1124H1429.87M1128.22 -200.252V-187.578M1134.01 -193.362H1121.33M422.999 -68.0031V-55.3292M428.781 -61.1124H416.109M-414.455 -68.0031V-55.3292M-408.673 -61.1124H-421.345M1128.22 -552.917V-540.243M1134.01 -546.026H1121.33M1436.76 -420.668V-407.994M1442.54 -413.777H1429.87M863.764 -200.252V-187.578M869.546 -193.362H856.874M26.3101 -200.252V-187.578M32.0925 -193.362H19.4205M422.999 -420.668V-407.994M428.781 -413.777H416.109M-414.455 -420.668V-407.994M-408.673 -413.777H-421.345M863.764 -552.917V-540.243M869.546 -546.026H856.874M26.3101 -552.917V-540.243M32.0925 -546.026H19.4205M1436.76 549.16V561.834M1442.54 556.051H1429.87M995.993 -200.252V-187.578M1001.78 -193.362H989.104M158.54 -200.252V-187.578M164.322 -193.362H151.65M422.999 549.16V561.834M428.781 556.051H416.109M-414.455 549.16V561.834M-408.673 556.051H-421.345M995.993 -552.917V-540.243M1001.78 -546.026H989.104M158.54 -552.917V-540.243M164.322 -546.026H151.65M1436.76 -376.585V-363.911M1442.54 -369.694H1429.87M731.534 -200.252V-187.578M737.317 -193.362H724.645M-105.919 -200.252V-187.578M-100.137 -193.362H-112.809M422.999 -376.585V-363.911M428.781 -369.694H416.109M-414.455 -376.585V-363.911M-408.673 -369.694H-421.345M731.534 -552.917V-540.243M737.317 -546.026H724.645M-105.919 -552.917V-540.243M-100.137 -546.026H-112.809M1568.99 -68.0031V-55.3292M1574.77 -61.1124H1562.1M1128.22 -112.086V-99.4123M1134.01 -105.195H1121.33M555.228 -68.0031V-55.3292M561.011 -61.1124H548.339M-282.225 -68.0031V-55.3292M-276.443 -61.1124H-289.115M1128.22 -464.751V-452.077M1134.01 -457.86H1121.33M1568.99 -420.668V-407.994M1574.77 -413.777H1562.1M863.764 -112.086V-99.4123M869.546 -105.195H856.874M26.3101 -112.086V-99.4123M32.0925 -105.195H19.4205M555.228 -420.668V-407.994M561.011 -413.777H548.339M-282.225 -420.668V-407.994M-276.443 -413.777H-289.115M863.764 -464.751V-452.077M869.546 -457.86H856.874M26.3101 -464.751V-452.077M32.0925 -457.86H19.4205M1568.99 549.16V561.834M1574.77 556.051H1562.1M995.993 -112.086V-99.4123M1001.78 -105.195H989.104M158.54 -112.086V-99.4123M164.322 -105.195H151.65M555.228 549.16V561.834M561.011 556.051H548.339M-282.225 549.16V561.834M-276.443 556.051H-289.115M995.993 -464.751V-452.077M1001.78 -457.86H989.104M158.54 -464.751V-452.077M164.322 -457.86H151.65M1568.99 -376.585V-363.911M1574.77 -369.694H1562.1M731.534 -112.086V-99.4123M737.317 -105.195H724.645M-105.919 -112.086V-99.4123M-100.137 -105.195H-112.809M555.228 -376.585V-363.911M561.011 -369.694H548.339M-282.225 -376.585V-363.911M-276.443 -369.694H-289.115M731.534 -464.751V-452.077M737.317 -457.86H724.645M-105.919 -464.751V-452.077M-100.137 -457.86H-112.809M1304.53 -68.0031V-55.3292M1310.31 -61.1124H1297.64M1083.87 -200.252V-187.578M1089.66 -193.362H1076.98M290.769 -68.0031V-55.3292M296.552 -61.1124H283.88M-546.685 -68.0031V-55.3292M-540.902 -61.1124H-553.574M1083.87 -552.917V-540.243M1089.66 -546.026H1076.98M1304.53 -420.668V-407.994M1310.31 -413.777H1297.64M819.415 -200.252V-187.578M825.197 -193.362H812.525M-18.0392 -200.252V-187.578M-12.2568 -193.362H-24.9288M290.769 -420.668V-407.994M296.552 -413.777H283.88M-546.685 -420.668V-407.994M-540.902 -413.777H-553.574M819.415 -552.917V-540.243M825.197 -546.026H812.525M-18.0392 -552.917V-540.243M-12.2568 -546.026H-24.9288M1304.53 549.16V561.834M1310.31 556.051H1297.64M951.644 -200.252V-187.578M957.427 -193.362H944.755M114.19 -200.252V-187.578M119.973 -193.362H107.301M290.769 549.16V561.834M296.552 556.051H283.88M-546.685 549.16V561.834M-540.902 556.051H-553.574M951.644 -552.917V-540.243M957.427 -546.026H944.755M114.19 -552.917V-540.243M119.973 -546.026H107.301M1304.53 -376.585V-363.911M1310.31 -369.694H1297.64M687.185 -200.252V-187.578M692.967 -193.362H680.295M-150.269 -200.252V-187.578M-144.486 -193.362H-157.158M290.769 -376.585V-363.911M296.552 -369.694H283.88M-546.685 -376.585V-363.911M-540.902 -369.694H-553.574M687.185 -552.917V-540.243M692.967 -546.026H680.295M-150.269 -552.917V-540.243M-144.486 -546.026H-157.158M1701.22 593.243V605.917M1707 600.134H1694.33M1083.87 -112.086V-99.4123M1089.66 -105.195H1076.98M1172.3 593.243V605.917M1178.08 600.134H1165.41M1083.87 -464.751V-452.077M1089.66 -457.86H1076.98M1701.22 -332.502V-319.828M1707 -325.611H1694.33M819.415 -112.086V-99.4123M825.197 -105.195H812.525M-18.0392 -112.086V-99.4123M-12.2568 -105.195H-24.9288M1172.3 -332.502V-319.828M1178.08 -325.611H1165.41M819.415 -464.751V-452.077M825.197 -457.86H812.525M-18.0392 -464.751V-452.077M-12.2568 -457.86H-24.9288M1701.22 637.326V650M1707 644.217H1694.33M951.644 -112.086V-99.4123M957.427 -105.195H944.755M114.19 -112.086V-99.4123M119.973 -105.195H107.301M1172.3 637.326V650M1178.08 644.217H1165.41M951.644 -464.751V-452.077M957.427 -457.86H944.755M114.19 -464.751V-452.077M119.973 -457.86H107.301M1701.22 -288.418V-275.745M1707 -281.528H1694.33M687.185 -112.086V-99.4123M692.967 -105.195H680.295M-150.269 -112.086V-99.4123M-144.486 -105.195H-157.158M1172.3 -288.418V-275.745M1178.08 -281.528H1165.41M687.185 -464.751V-452.077M692.967 -457.86H680.295M-150.269 -464.751V-452.077M-144.486 -457.86H-157.158M1436.76 593.243V605.917M1442.54 600.134H1429.87M422.999 593.243V605.917M428.781 600.134H416.109M-414.455 593.243V605.917M-408.673 600.134H-421.345M1436.76 -332.502V-319.828M1442.54 -325.611H1429.87M422.999 -332.502V-319.828M428.781 -325.611H416.109M-414.455 -332.502V-319.828M-408.673 -325.611H-421.345M1436.76 637.326V650M1442.54 644.217H1429.87M422.999 637.326V650M428.781 644.217H416.109M-414.455 637.326V650M-408.673 644.217H-421.345M1436.76 -288.418V-275.745M1442.54 -281.528H1429.87M422.999 -288.418V-275.745M428.781 -281.528H416.109M-414.455 -288.418V-275.745M-408.673 -281.528H-421.345M1568.99 593.243V605.917M1574.77 600.134H1562.1M907.84 -244.335V-231.661M913.623 -237.445H900.951M70.3867 -244.335V-231.661M76.169 -237.445H63.497M555.228 593.243V605.917M561.011 600.134H548.339M-282.225 593.243V605.917M-276.443 600.134H-289.115M907.84 -597V-584.326M913.623 -590.109L900.951 -590.109M70.3867 -597V-584.326M76.169 -590.109L63.497 -590.109M1568.99 -332.502V-319.828M1574.77 -325.611H1562.1M907.84 -200.252V-187.578M913.623 -193.362H900.951M70.3867 -200.252V-187.578M76.169 -193.362H63.497M555.228 -332.502V-319.828M561.011 -325.611H548.339M-282.225 -332.502V-319.828M-276.443 -325.611H-289.115M907.84 -552.917V-540.243M913.623 -546.026H900.951M70.3867 -552.917V-540.243M76.169 -546.026H63.497M1568.99 637.326V650M1574.77 644.217H1562.1M1040.07 -244.335V-231.661M1045.85 -237.445H1033.18M555.228 637.326V650M561.011 644.217H548.339M-282.225 637.326V650M-276.443 644.217H-289.115M1040.07 -597V-584.326M1045.85 -590.109L1033.18 -590.109M1568.99 -288.418V-275.745M1574.77 -281.528H1562.1M1040.07 -200.252V-187.578M1045.85 -193.362H1033.18M555.228 -288.418V-275.745M561.011 -281.528H548.339M-282.225 -288.418V-275.745M-276.443 -281.528H-289.115M1040.07 -552.917V-540.243M1045.85 -546.026H1033.18M1304.53 593.243V605.917M1310.31 600.134H1297.64M775.611 -244.335V-231.661M781.393 -237.445H768.721M-61.8429 -244.335V-231.661M-56.0605 -237.445H-68.7325M290.769 593.243V605.917M296.552 600.134H283.88M-546.685 593.243V605.917M-540.902 600.134H-553.574M775.611 -597V-584.326M781.393 -590.109L768.721 -590.109M-61.8429 -597V-584.326M-56.0605 -590.109L-68.7325 -590.109M1304.53 -332.502V-319.828M1310.31 -325.611H1297.64M775.611 -200.252V-187.578M781.393 -193.362H768.721M-61.8429 -200.252V-187.578M-56.0605 -193.362H-68.7325M290.769 -332.502V-319.828M296.552 -325.611H283.88M-546.685 -332.502V-319.828M-540.902 -325.611H-553.574M775.611 -552.917V-540.243M781.393 -546.026H768.721M-61.8429 -552.917V-540.243M-56.0605 -546.026H-68.7325M1304.53 637.326V650M1310.31 644.217H1297.64M290.769 637.326V650M296.552 644.217H283.88M-546.685 637.326V650M-540.902 644.217H-553.574M1304.53 -288.418V-275.745M1310.31 -281.528H1297.64M290.769 -288.418V-275.745M296.552 -281.528H283.88M-546.685 -288.418V-275.745M-540.902 -281.528H-553.574M1657.14 -244.335V-231.661M1662.92 -237.445H1650.25M643.381 -244.335V-231.661M649.164 -237.445H636.492M-194.072 -244.335V-231.661M-188.29 -237.445H-200.962M1657.14 -597V-584.326M1662.92 -590.109L1650.25 -590.109M643.381 -597V-584.326M649.164 -590.109L636.492 -590.109M-194.072 -597V-584.326M-188.29 -590.109L-200.962 -590.109M1392.68 -244.335V-231.661M1398.46 -237.445H1385.79M907.84 -156.169V-143.495M913.623 -149.279H900.951M70.3867 -156.169V-143.495M76.169 -149.279H63.497M378.922 -244.335V-231.661M384.705 -237.445H372.033M-458.532 -244.335V-231.661M-452.749 -237.445H-465.421M907.84 -508.834V-496.16M913.623 -501.943H900.951M70.3867 -508.834V-496.16M76.169 -501.943H63.497M1392.68 -597V-584.326M1398.46 -590.109L1385.79 -590.109M907.84 -112.086V-99.4123M913.623 -105.195H900.951M70.3867 -112.086V-99.4123M76.169 -105.195H63.497M378.922 -597V-584.326M384.705 -590.109L372.033 -590.109M-458.532 -597V-584.326M-452.749 -590.109L-465.421 -590.109M907.84 -464.751V-452.077M913.623 -457.86H900.951M70.3867 -464.751V-452.077M76.169 -457.86H63.497M1524.91 -244.335V-231.661M1530.69 -237.445H1518.02M1040.07 -156.169V-143.495M1045.85 -149.279H1033.18M511.152 -244.335V-231.661M516.934 -237.445H504.262M-326.302 -244.335V-231.661M-320.52 -237.445H-333.192M1040.07 -508.834V-496.16M1045.85 -501.943H1033.18M1524.91 -597V-584.326M1530.69 -590.109L1518.02 -590.109M1040.07 -112.086V-99.4123M1045.85 -105.195H1033.18M511.152 -597V-584.326M516.934 -590.109L504.262 -590.109M-326.302 -597V-584.326M-320.52 -590.109L-333.192 -590.109M1040.07 -464.751V-452.077M1045.85 -457.86H1033.18M1260.45 -244.335V-231.661M1266.23 -237.445H1253.56M775.611 -156.169V-143.495M781.393 -149.279H768.721M-61.8429 -156.169V-143.495M-56.0605 -149.279H-68.7325M246.693 -244.335V-231.661M252.475 -237.445H239.803M-590.761 -244.335V-231.661M-584.979 -237.445H-597.651M775.611 -508.834V-496.16M781.393 -501.943H768.721M-61.8429 -508.834V-496.16M-56.0605 -501.943H-68.7325M1260.45 -597V-584.326M1266.23 -590.109L1253.56 -590.109M775.611 -112.086V-99.4123M781.393 -105.195H768.721M-61.8429 -112.086V-99.4123M-56.0605 -105.195H-68.7325M246.693 -597V-584.326M252.475 -590.109L239.803 -590.109M-590.761 -597V-584.326M-584.979 -590.109L-597.651 -590.109M775.611 -464.751V-452.077M781.393 -457.86H768.721M-61.8429 -464.751V-452.077M-56.0605 -457.86H-68.7325M1657.14 -156.169V-143.495M1662.92 -149.279H1650.25M643.381 -156.169V-143.495M649.164 -149.279H636.492M-194.072 -156.169V-143.495M-188.29 -149.279H-200.962M1657.14 -508.834V-496.16M1662.92 -501.943H1650.25M643.381 -508.834V-496.16M649.164 -501.943H636.492M-194.072 -508.834V-496.16M-188.29 -501.943H-200.962M1392.68 -156.169V-143.495M1398.46 -149.279H1385.79M378.922 -156.169V-143.495M384.705 -149.279H372.033M-458.532 -156.169V-143.495M-452.749 -149.279H-465.421M1392.68 -508.834V-496.16M1398.46 -501.943H1385.79M378.922 -508.834V-496.16M384.705 -501.943H372.033M-458.532 -508.834V-496.16M-452.749 -501.943H-465.421M1524.91 -156.169V-143.495M1530.69 -149.279H1518.02M511.152 -156.169V-143.495M516.934 -149.279H504.262M-326.302 -156.169V-143.495M-320.52 -149.279H-333.192M1524.91 -508.834V-496.16M1530.69 -501.943H1518.02M511.152 -508.834V-496.16M516.934 -501.943H504.262M-326.302 -508.834V-496.16M-320.52 -501.943H-333.192M1260.45 -156.169V-143.495M1266.23 -149.279H1253.56M246.693 -156.169V-143.495M252.475 -149.279H239.803M-590.761 -156.169V-143.495M-584.979 -149.279H-597.651M1260.45 -508.834V-496.16M1266.23 -501.943H1253.56M246.693 -508.834V-496.16M252.475 -501.943H239.803M-590.761 -508.834V-496.16M-584.979 -501.943H-597.651M1612.79 -244.335V-231.661M1618.57 -237.445H1605.9M599.032 -244.335V-231.661M604.814 -237.445H592.142M-238.422 -244.335V-231.661M-232.639 -237.445H-245.311M1612.79 -597V-584.326M1618.57 -590.109L1605.9 -590.109M599.032 -597V-584.326M604.814 -590.109L592.142 -590.109M-238.422 -597V-584.326M-232.639 -590.109L-245.311 -590.109M1348.33 -244.335V-231.661M1354.12 -237.445H1341.44M334.573 -244.335V-231.661M340.355 -237.445H327.683M-502.881 -244.335V-231.661M-497.098 -237.445H-509.77M1348.33 -597V-584.326M1354.12 -590.109L1341.44 -590.109M334.573 -597V-584.326M340.355 -590.109L327.683 -590.109M-502.881 -597V-584.326M-497.098 -590.109L-509.77 -590.109M1480.56 -244.335V-231.661M1486.34 -237.445H1473.67M466.802 -244.335V-231.661M472.585 -237.445H459.913M-370.651 -244.335V-231.661M-364.869 -237.445H-377.541M1480.56 -597V-584.326M1486.34 -590.109L1473.67 -590.109M466.802 -597V-584.326M472.585 -590.109L459.913 -590.109M-370.651 -597V-584.326M-364.869 -590.109L-377.541 -590.109M1216.1 -244.335V-231.661M1221.89 -237.445H1209.21M202.343 -244.335V-231.661M208.126 -237.445H195.454M-635.11 -244.335L-635.11 -231.661M-629.328 -237.445H-642M1216.1 -597V-584.326M1221.89 -590.109L1209.21 -590.109M202.343 -597V-584.326M208.126 -590.109L195.454 -590.109M-635.11 -597L-635.11 -584.326M-629.328 -590.109L-642 -590.109M1612.79 -156.169V-143.495M1618.57 -149.279H1605.9M599.032 -156.169V-143.495M604.814 -149.279H592.142M-238.422 -156.169V-143.495M-232.639 -149.279H-245.311M1612.79 -508.834V-496.16M1618.57 -501.943H1605.9M599.032 -508.834V-496.16M604.814 -501.943H592.142M-238.422 -508.834V-496.16M-232.639 -501.943H-245.311M1348.33 -156.169V-143.495M1354.12 -149.279H1341.44M334.573 -156.169V-143.495M340.355 -149.279H327.683M-502.881 -156.169V-143.495M-497.098 -149.279H-509.77M1348.33 -508.834V-496.16M1354.12 -501.943H1341.44M334.573 -508.834V-496.16M340.355 -501.943H327.683M-502.881 -508.834V-496.16M-497.098 -501.943H-509.77M1480.56 -156.169V-143.495M1486.34 -149.279H1473.67M466.802 -156.169V-143.495M472.585 -149.279H459.913M-370.651 -156.169V-143.495M-364.869 -149.279H-377.541M1480.56 -508.834V-496.16M1486.34 -501.943H1473.67M466.802 -508.834V-496.16M472.585 -501.943H459.913M-370.651 -508.834V-496.16M-364.869 -501.943H-377.541M1216.1 -156.169V-143.495M1221.89 -149.279H1209.21M202.343 -156.169V-143.495M208.126 -149.279H195.454M-635.11 -156.169L-635.11 -143.495M-629.328 -149.279H-642M1216.1 -508.834V-496.16M1221.89 -501.943H1209.21M202.343 -508.834V-496.16M208.126 -501.943H195.454M-635.11 -508.834L-635.11 -496.16M-629.328 -501.943H-642M1657.14 -200.252V-187.578M1662.92 -193.362H1650.25M643.381 -200.252V-187.578M649.164 -193.362H636.492M-194.072 -200.252V-187.578M-188.29 -193.362H-200.962M1657.14 -552.917V-540.243M1662.92 -546.026H1650.25M643.381 -552.917V-540.243M649.164 -546.026H636.492M-194.072 -552.917V-540.243M-188.29 -546.026H-200.962M1392.68 -200.252V-187.578M1398.46 -193.362H1385.79M378.922 -200.252V-187.578M384.705 -193.362H372.033M-458.532 -200.252V-187.578M-452.749 -193.362H-465.421M1392.68 -552.917V-540.243M1398.46 -546.026H1385.79M378.922 -552.917V-540.243M384.705 -546.026H372.033M-458.532 -552.917V-540.243M-452.749 -546.026H-465.421M1524.91 -200.252V-187.578M1530.69 -193.362H1518.02M511.152 -200.252V-187.578M516.934 -193.362H504.262M-326.302 -200.252V-187.578M-320.52 -193.362H-333.192M1524.91 -552.917V-540.243M1530.69 -546.026H1518.02M511.152 -552.917V-540.243M516.934 -546.026H504.262M-326.302 -552.917V-540.243M-320.52 -546.026H-333.192M1260.45 -200.252V-187.578M1266.23 -193.362H1253.56M246.693 -200.252V-187.578M252.475 -193.362H239.803M-590.761 -200.252V-187.578M-584.979 -193.362H-597.651M1260.45 -552.917V-540.243M1266.23 -546.026H1253.56M246.693 -552.917V-540.243M252.475 -546.026H239.803M-590.761 -552.917V-540.243M-584.979 -546.026H-597.651M1657.14 -112.086V-99.4123M1662.92 -105.195H1650.25M643.381 -112.086V-99.4123M649.164 -105.195H636.492M-194.072 -112.086V-99.4123M-188.29 -105.195H-200.962M1657.14 -464.751V-452.077M1662.92 -457.86H1650.25M643.381 -464.751V-452.077M649.164 -457.86H636.492M-194.072 -464.751V-452.077M-188.29 -457.86H-200.962M1392.68 -112.086V-99.4123M1398.46 -105.195H1385.79M378.922 -112.086V-99.4123M384.705 -105.195H372.033M-458.532 -112.086V-99.4123M-452.749 -105.195H-465.421M1392.68 -464.751V-452.077M1398.46 -457.86H1385.79M378.922 -464.751V-452.077M384.705 -457.86H372.033M-458.532 -464.751V-452.077M-452.749 -457.86H-465.421M1524.91 -112.086V-99.4123M1530.69 -105.195H1518.02M511.152 -112.086V-99.4123M516.934 -105.195H504.262M-326.302 -112.086V-99.4123M-320.52 -105.195H-333.192M1524.91 -464.751V-452.077M1530.69 -457.86H1518.02M511.152 -464.751V-452.077M516.934 -457.86H504.262M-326.302 -464.751V-452.077M-320.52 -457.86H-333.192M1260.45 -112.086V-99.4123M1266.23 -105.195H1253.56M246.693 -112.086V-99.4123M252.475 -105.195H239.803M-590.761 -112.086V-99.4123M-584.979 -105.195H-597.651M1260.45 -464.751V-452.077M1266.23 -457.86H1253.56M246.693 -464.751V-452.077M252.475 -457.86H239.803M-590.761 -464.751V-452.077M-584.979 -457.86H-597.651M1612.79 -200.252V-187.578M1618.57 -193.362H1605.9M599.032 -200.252V-187.578M604.814 -193.362H592.142M-238.422 -200.252V-187.578M-232.639 -193.362H-245.311M1612.79 -552.917V-540.243M1618.57 -546.026H1605.9M599.032 -552.917V-540.243M604.814 -546.026H592.142M-238.422 -552.917V-540.243M-232.639 -546.026H-245.311M1348.33 -200.252V-187.578M1354.12 -193.362H1341.44M334.573 -200.252V-187.578M340.355 -193.362H327.683M-502.881 -200.252V-187.578M-497.098 -193.362H-509.77M1348.33 -552.917V-540.243M1354.12 -546.026H1341.44M334.573 -552.917V-540.243M340.355 -546.026H327.683M-502.881 -552.917V-540.243M-497.098 -546.026H-509.77M1480.56 -200.252V-187.578M1486.34 -193.362H1473.67M466.802 -200.252V-187.578M472.585 -193.362H459.913M-370.651 -200.252V-187.578M-364.869 -193.362H-377.541M1480.56 -552.917V-540.243M1486.34 -546.026H1473.67M466.802 -552.917V-540.243M472.585 -546.026H459.913M-370.651 -552.917V-540.243M-364.869 -546.026H-377.541M1216.1 -200.252V-187.578M1221.89 -193.362H1209.21M202.343 -200.252V-187.578M208.126 -193.362H195.454M-635.11 -200.252L-635.11 -187.578M-629.328 -193.362H-642M1216.1 -552.917V-540.243M1221.89 -546.026H1209.21M202.343 -552.917V-540.243M208.126 -546.026H195.454M-635.11 -552.917L-635.11 -540.243M-629.328 -546.026H-642M1612.79 -112.086V-99.4123M1618.57 -105.195H1605.9M599.032 -112.086V-99.4123M604.814 -105.195H592.142M-238.422 -112.086V-99.4123M-232.639 -105.195H-245.311M1612.79 -464.751V-452.077M1618.57 -457.86H1605.9M599.032 -464.751V-452.077M604.814 -457.86H592.142M-238.422 -464.751V-452.077M-232.639 -457.86H-245.311M1348.33 -112.086V-99.4123M1354.12 -105.195H1341.44M334.573 -112.086V-99.4123M340.355 -105.195H327.683M-502.881 -112.086V-99.4123M-497.098 -105.195H-509.77M1348.33 -464.751V-452.077M1354.12 -457.86H1341.44M334.573 -464.751V-452.077M340.355 -457.86H327.683M-502.881 -464.751V-452.077M-497.098 -457.86H-509.77M1480.56 -112.086V-99.4123M1486.34 -105.195H1473.67M466.802 -112.086V-99.4123M472.585 -105.195H459.913M-370.651 -112.086V-99.4123M-364.869 -105.195H-377.541M1480.56 -464.751V-452.077M1486.34 -457.86H1473.67M466.802 -464.751V-452.077M472.585 -457.86H459.913M-370.651 -464.751V-452.077M-364.869 -457.86H-377.541M1216.1 -112.086V-99.4123M1221.89 -105.195H1209.21M202.343 -112.086V-99.4123M208.126 -105.195H195.454M-635.11 -112.086L-635.11 -99.4123M-629.328 -105.195H-642M1216.1 -464.751V-452.077M1221.89 -457.86H1209.21M202.343 -464.751V-452.077M208.126 -457.86H195.454M-635.11 -464.751L-635.11 -452.077M-629.328 -457.86H-642M1701.22 -244.335V-231.661M1707 -237.445H1694.33M1172.3 -244.335V-231.661M1178.08 -237.445H1165.41M1701.22 -597V-584.326M1707 -590.109L1694.33 -590.109M1172.3 -597V-584.326M1178.08 -590.109L1165.41 -590.109M1701.22 -200.252V-187.578M1707 -193.362H1694.33M1172.3 -200.252V-187.578M1178.08 -193.362H1165.41M1701.22 -552.917V-540.243M1707 -546.026H1694.33M1172.3 -552.917V-540.243M1178.08 -546.026H1165.41M1436.76 -244.335V-231.661M1442.54 -237.445H1429.87M422.999 -244.335V-231.661M428.781 -237.445H416.109M-414.455 -244.335V-231.661M-408.673 -237.445H-421.345M1436.76 -597V-584.326M1442.54 -590.109L1429.87 -590.109M422.999 -597V-584.326M428.781 -590.109L416.109 -590.109M-414.455 -597V-584.326M-408.673 -590.109L-421.345 -590.109M1436.76 -200.252V-187.578M1442.54 -193.362H1429.87M422.999 -200.252V-187.578M428.781 -193.362H416.109M-414.455 -200.252V-187.578M-408.673 -193.362H-421.345M1436.76 -552.917V-540.243M1442.54 -546.026H1429.87M422.999 -552.917V-540.243M428.781 -546.026H416.109M-414.455 -552.917V-540.243M-408.673 -546.026H-421.345M1568.99 -244.335V-231.661M1574.77 -237.445H1562.1M555.228 -244.335V-231.661M561.011 -237.445H548.339M-282.225 -244.335V-231.661M-276.443 -237.445H-289.115M1568.99 -597V-584.326M1574.77 -590.109L1562.1 -590.109M555.228 -597V-584.326M561.011 -590.109L548.339 -590.109M-282.225 -597V-584.326M-276.443 -590.109L-289.115 -590.109M1568.99 -200.252V-187.578M1574.77 -193.362H1562.1M555.228 -200.252V-187.578M561.011 -193.362H548.339M-282.225 -200.252V-187.578M-276.443 -193.362H-289.115M1568.99 -552.917V-540.243M1574.77 -546.026H1562.1M555.228 -552.917V-540.243M561.011 -546.026H548.339M-282.225 -552.917V-540.243M-276.443 -546.026H-289.115M1304.53 -244.335V-231.661M1310.31 -237.445H1297.64M290.769 -244.335V-231.661M296.552 -237.445H283.88M-546.685 -244.335V-231.661M-540.902 -237.445H-553.574M1304.53 -597V-584.326M1310.31 -590.109L1297.64 -590.109M290.769 -597V-584.326M296.552 -590.109L283.88 -590.109M-546.685 -597V-584.326M-540.902 -590.109L-553.574 -590.109M1304.53 -200.252V-187.578M1310.31 -193.362H1297.64M290.769 -200.252V-187.578M296.552 -193.362H283.88M-546.685 -200.252V-187.578M-540.902 -193.362H-553.574M1304.53 -552.917V-540.243M1310.31 -546.026H1297.64M290.769 -552.917V-540.243M296.552 -546.026H283.88M-546.685 -552.917V-540.243M-540.902 -546.026H-553.574M1701.22 -156.169V-143.495M1707 -149.279H1694.33M1172.3 -156.169V-143.495M1178.08 -149.279H1165.41M1701.22 -508.834V-496.16M1707 -501.943H1694.33M1172.3 -508.834V-496.16M1178.08 -501.943H1165.41M1701.22 -112.086V-99.4123M1707 -105.195H1694.33M1172.3 -112.086V-99.4123M1178.08 -105.195H1165.41M1701.22 -464.751V-452.077M1707 -457.86H1694.33M1172.3 -464.751V-452.077M1178.08 -457.86H1165.41M1436.76 -156.169V-143.495M1442.54 -149.279H1429.87M422.999 -156.169V-143.495M428.781 -149.279H416.109M-414.455 -156.169V-143.495M-408.673 -149.279H-421.345M1436.76 -508.834V-496.16M1442.54 -501.943H1429.87M422.999 -508.834V-496.16M428.781 -501.943H416.109M-414.455 -508.834V-496.16M-408.673 -501.943H-421.345M1436.76 -112.086V-99.4123M1442.54 -105.195H1429.87M422.999 -112.086V-99.4123M428.781 -105.195H416.109M-414.455 -112.086V-99.4123M-408.673 -105.195H-421.345M1436.76 -464.751V-452.077M1442.54 -457.86H1429.87M422.999 -464.751V-452.077M428.781 -457.86H416.109M-414.455 -464.751V-452.077M-408.673 -457.86H-421.345M1568.99 -156.169V-143.495M1574.77 -149.279H1562.1M555.228 -156.169V-143.495M561.011 -149.279H548.339M-282.225 -156.169V-143.495M-276.443 -149.279H-289.115M1568.99 -508.834V-496.16M1574.77 -501.943H1562.1M555.228 -508.834V-496.16M561.011 -501.943H548.339M-282.225 -508.834V-496.16M-276.443 -501.943H-289.115M1568.99 -112.086V-99.4123M1574.77 -105.195H1562.1M555.228 -112.086V-99.4123M561.011 -105.195H548.339M-282.225 -112.086V-99.4123M-276.443 -105.195H-289.115M1568.99 -464.751V-452.077M1574.77 -457.86H1562.1M555.228 -464.751V-452.077M561.011 -457.86H548.339M-282.225 -464.751V-452.077M-276.443 -457.86H-289.115M1304.53 -156.169V-143.495M1310.31 -149.279H1297.64M290.769 -156.169V-143.495M296.552 -149.279H283.88M-546.685 -156.169V-143.495M-540.902 -149.279H-553.574M1304.53 -508.834V-496.16M1310.31 -501.943H1297.64M290.769 -508.834V-496.16M296.552 -501.943H283.88M-546.685 -508.834V-496.16M-540.902 -501.943H-553.574M1304.53 -112.086V-99.4123M1310.31 -105.195H1297.64M290.769 -112.086V-99.4123M296.552 -105.195H283.88M-546.685 -112.086V-99.4123M-540.902 -105.195H-553.574M1304.53 -464.751V-452.077M1310.31 -457.86H1297.64M290.769 -464.751V-452.077M296.552 -457.86H283.88M-546.685 -464.751V-452.077M-540.902 -457.86H-553.574" stroke="#0A0A0A" stroke-opacity="0.03" stroke-width="2" stroke-linecap="round"/>
<path d="M-105 173C-80.5307 128.867 105.05 20.3341 244.606 59.6112C419.049 108.707 651.958 110.788 755 -70" stroke="url(#paint0_linear_8883_24521)" stroke-opacity="0.13" stroke-width="261"/>
</g>
<defs>
<filter id="filter1_f_8883_24521" x="-849.1" y="-397.1" width="1479.84" height="1430.7" filterUnits="userSpaceOnUse" color-interpolation-filters="sRGB">
<feFlood flood-opacity="0" result="BackgroundImageFix"/>
<feBlend mode="normal" in="SourceGraphic" in2="BackgroundImageFix" result="shape"/>
<feGaussianBlur stdDeviation="178.05" result="effect1_foregroundBlur_8883_24521"/>
</filter>
<linearGradient id="paint0_linear_8883_24521" x1="-3.24618" y1="95.9226" x2="634.133" y2="95.9226" gradientUnits="userSpaceOnUse">
<stop stop-color="#2363EB" stop-opacity="0.02"/>
<stop offset="0.25" stop-color="#2363EB" stop-opacity="0.246909"/>
<stop offset="0.528846" stop-color="#AC48F9" stop-opacity="0.5"/>
<stop offset="1" stop-color="#AC48F9" stop-opacity="0.02"/>
</linearGradient>
</defs>
</svg>
