<svg width="28" height="28" viewBox="0 0 28 28" fill="none" xmlns="http://www.w3.org/2000/svg">
<g clip-path="url(#clip0_8883_24533)">
<path d="M28 0H0V28H28V0Z" fill="url(#paint0_linear_8883_24533)"/>
<path d="M21.3563 14.0058C21.3563 14.6323 21.046 15.2013 20.5229 15.5404L14.7069 20.092C14.5171 20.2413 14.2874 20.3162 14.0632 20.3162C13.839 20.3162 13.4425 20.1784 13.2355 19.9083C12.8849 19.4544 12.9998 18.7645 13.454 18.4139L16.3103 16.1783C17.724 15.0747 17.724 12.937 16.3103 11.8334L13.4138 9.56904C12.9309 9.18978 12.8677 8.47721 13.2989 8.02303C13.6782 7.62654 14.3104 7.61506 14.7358 7.94838L20.5174 12.477C21.0405 12.8161 21.3451 13.3851 21.3451 14.0116L21.3566 14.0058H21.3563ZM16.1725 14.0058C16.1725 13.3794 15.8621 12.8104 15.3448 12.4713L9.49979 7.89068C9.48256 7.87346 9.45959 7.86197 9.43663 7.85049L9.1837 7.70119C9.13202 7.67248 9.07459 7.64377 9.0169 7.63228C7.66065 7.32193 6.64319 8.30467 6.64319 9.414V10.3393C6.64319 10.6612 6.90186 10.9198 7.2237 10.9198H9.511C9.72948 10.9198 9.93045 11.0404 10.0283 11.2302C10.2583 11.6956 9.92499 12.1555 9.48229 12.1555H7.2237C6.90186 12.1612 6.64319 12.4199 6.64319 12.7417C6.64319 13.0636 6.90186 13.3222 7.2237 13.3222H11.419C11.6375 13.3222 11.8385 13.4428 11.9364 13.6326C12.1664 14.098 11.833 14.5579 11.3903 14.5579H7.2237C6.90186 14.5579 6.64319 14.8166 6.64319 15.1384C6.64319 15.4603 6.90186 15.7189 7.2237 15.7189H9.511C9.72948 15.7189 9.93045 15.8395 10.0283 16.0293C10.2583 16.4947 9.92499 16.9546 9.48229 16.9546H7.2237C6.90186 16.9546 6.64319 17.219 6.64319 17.5408V18.8569C6.64319 18.9143 6.64893 18.9775 6.6719 19.0352C6.97077 19.9662 7.72928 20.4259 8.48233 20.4259C9.23538 20.4259 9.13174 20.3397 9.41338 20.1729L9.47081 20.1385L15.3388 15.5406C15.8619 15.2016 16.1722 14.6326 16.1722 14.0061L16.1725 14.0058Z" fill="white"/>
</g>
<defs>
<linearGradient id="paint0_linear_8883_24533" x1="0" y1="14" x2="28" y2="14" gradientUnits="userSpaceOnUse">
<stop stop-color="#2758E5"/>
<stop offset="1" stop-color="#A041F7"/>
</linearGradient>
<clipPath id="clip0_8883_24533">
<rect width="28" height="28" rx="3" fill="white"/>
</clipPath>
</defs>
</svg>
