<svg width="26" height="26" viewBox="0 0 26 26" fill="none" xmlns="http://www.w3.org/2000/svg">
<path d="M0 4C0 1.79086 1.79086 0 4 0H22C24.2091 0 26 1.79086 26 4V22C26 24.2091 24.2091 26 22 26H4C1.79086 26 0 24.2091 0 22V4Z" fill="white"/>
<path d="M14.5 10.75C14.5 11.1478 14.342 11.5294 14.0607 11.8107C13.7794 12.092 13.3978 12.25 13 12.25H8.5L5.5 15.25V7C5.5 6.60218 5.65804 6.22064 5.93934 5.93934C6.22064 5.65804 6.60218 5.5 7 5.5H13C13.3978 5.5 13.7794 5.65804 14.0607 5.93934C14.342 6.22064 14.5 6.60218 14.5 7V10.75Z" stroke="#2758E5" stroke-width="1.5" stroke-linecap="round" stroke-linejoin="round"/>
<path d="M17.5 10.75H19C19.3978 10.75 19.7794 10.908 20.0607 11.1893C20.342 11.4706 20.5 11.8522 20.5 12.25V20.5L17.5 17.5H13C12.6022 17.5 12.2206 17.342 11.9393 17.0607C11.658 16.7794 11.5 16.3978 11.5 16V15.25" stroke="#2758E5" stroke-width="1.5" stroke-linecap="round" stroke-linejoin="round"/>
</svg>
