<svg width="28" height="28" viewBox="0 0 28 28" fill="none" xmlns="http://www.w3.org/2000/svg">
<path d="M0 4C0 1.79086 1.79086 0 4 0H24C26.2091 0 28 1.79086 28 4V24C28 26.2091 26.2091 28 24 28H4C1.79086 28 0 26.2091 0 24V4Z" fill="white"/>
<path d="M17.3333 21.5V19.8333C17.3333 18.9493 16.9821 18.1014 16.357 17.4763C15.7319 16.8512 14.884 16.5 14 16.5H8.99999C8.11593 16.5 7.26809 16.8512 6.64297 17.4763C6.01785 18.1014 5.66666 18.9493 5.66666 19.8333V21.5" stroke="#2758E5" stroke-width="1.5" stroke-linecap="round" stroke-linejoin="round"/>
<path d="M17.3333 6.60645C18.0481 6.79175 18.6812 7.20917 19.1331 7.79316C19.585 8.37716 19.8302 9.09469 19.8302 9.83311C19.8302 10.5715 19.585 11.2891 19.1331 11.8731C18.6812 12.4571 18.0481 12.8745 17.3333 13.0598" stroke="#2758E5" stroke-width="1.5" stroke-linecap="round" stroke-linejoin="round"/>
<path d="M22.3333 21.5001V19.8334C22.3328 19.0948 22.087 18.3774 21.6345 17.7937C21.182 17.2099 20.5485 16.793 19.8333 16.6084" stroke="#2758E5" stroke-width="1.5" stroke-linecap="round" stroke-linejoin="round"/>
<path d="M11.5 13.1667C13.3409 13.1667 14.8333 11.6743 14.8333 9.83333C14.8333 7.99238 13.3409 6.5 11.5 6.5C9.65904 6.5 8.16666 7.99238 8.16666 9.83333C8.16666 11.6743 9.65904 13.1667 11.5 13.1667Z" stroke="#2758E5" stroke-width="1.5" stroke-linecap="round" stroke-linejoin="round"/>
</svg>
