<svg width="26" height="26" viewBox="0 0 26 26" fill="none" xmlns="http://www.w3.org/2000/svg">
<path d="M0 4C0 1.79086 1.79086 0 4 0H22C24.2091 0 26 1.79086 26 4V22C26 24.2091 24.2091 26 22 26H4C1.79086 26 0 24.2091 0 22V4Z" fill="white"/>
<path d="M18.25 7.75L20.5 5.5" stroke="#2758E5" stroke-width="1.5" stroke-linecap="round" stroke-linejoin="round"/>
<path d="M5.5 20.5L7.75 18.25" stroke="#2758E5" stroke-width="1.5" stroke-linecap="round" stroke-linejoin="round"/>
<path d="M8.72499 19.225C8.89222 19.3928 9.09093 19.526 9.30972 19.6168C9.52851 19.7077 9.76309 19.7544 9.99999 19.7544C10.2369 19.7544 10.4715 19.7077 10.6903 19.6168C10.9091 19.526 11.1078 19.3928 11.275 19.225L13 17.5L8.49999 13L6.77499 14.725C6.60719 14.8922 6.47404 15.0909 6.38319 15.3097C6.29234 15.5285 6.24557 15.7631 6.24557 16C6.24557 16.2369 6.29234 16.4715 6.38319 16.6903C6.47404 16.9091 6.60719 17.1078 6.77499 17.275L8.72499 19.225Z" stroke="#2758E5" stroke-width="1.5" stroke-linecap="round" stroke-linejoin="round"/>
<path d="M9.625 14.125L11.5 12.25" stroke="#2758E5" stroke-width="1.5" stroke-linecap="round" stroke-linejoin="round"/>
<path d="M11.875 16.375L13.75 14.5" stroke="#2758E5" stroke-width="1.5" stroke-linecap="round" stroke-linejoin="round"/>
<path d="M13 8.50002L17.5 13L19.225 11.275C19.3928 11.1078 19.526 10.9091 19.6168 10.6903C19.7077 10.4715 19.7544 10.2369 19.7544 10C19.7544 9.76312 19.7077 9.52854 19.6168 9.30975C19.526 9.09096 19.3928 8.89225 19.225 8.72502L17.275 6.77502C17.1078 6.60722 16.9091 6.47407 16.6903 6.38322C16.4715 6.29237 16.2369 6.24561 16 6.24561C15.7631 6.24561 15.5285 6.29237 15.3097 6.38322C15.0909 6.47407 14.8922 6.60722 14.725 6.77502L13 8.50002Z" stroke="#2758E5" stroke-width="1.5" stroke-linecap="round" stroke-linejoin="round"/>
</svg>
