<svg xmlns="http://www.w3.org/2000/svg" width="24" height="24" fill="none" viewBox="0 0 24 24">
    <path fill="var(--sl-channels-icon-color, #FFF)"
        d="M19.669 5.018c-.008-.012-.015-.023-.03-.027A18 18 0 0 0 15.15 3.6a.1.1 0 0 0-.041.004q-.018.006-.03.03c-.207.371-.394.757-.559 1.147a16.7 16.7 0 0 0-5.04 0 12 12 0 0 0-.566-1.147.1.1 0 0 0-.03-.03q-.017-.01-.041-.008c-1.55.266-3.06.735-4.49 1.391a.1.1 0 0 0-.03.027C1.467 9.28.684 13.447 1.066 17.558q.001.014.008.03c.003.01.01.014.018.022a18.2 18.2 0 0 0 5.505 2.782q.023.006.042 0a.1.1 0 0 0 .033-.026c.424-.577.803-1.192 1.125-1.83a.1.1 0 0 0 .008-.03c0-.011 0-.018-.004-.03q-.004-.016-.015-.022c-.007-.004-.015-.012-.026-.015a12 12 0 0 1-1.721-.822q-.017-.011-.027-.022-.01-.014-.011-.034-.002-.016.008-.034c.007-.01.01-.018.022-.026.116-.086.233-.176.341-.266q.018-.014.034-.015.018-.001.038.004c3.607 1.646 7.515 1.646 11.08 0a.1.1 0 0 1 .038-.008c.012 0 .026.008.034.015.109.09.225.184.341.27q.011.01.023.026.009.018.007.034a.06.06 0 0 1-.011.034.1.1 0 0 1-.022.023q-.827.484-1.722.817-.012.005-.026.015a.1.1 0 0 0-.015.026c-.004.012-.004.019-.004.03q.001.015.008.03.495.958 1.125 1.83a.1.1 0 0 0 .034.026c.01.004.03.004.04 0a18.3 18.3 0 0 0 5.517-2.782q.013-.012.019-.023a.1.1 0 0 0 .007-.03c.462-4.754-.768-8.883-3.259-12.543zM8.344 15.056c-1.088 0-1.98-.997-1.98-2.22 0-1.222.877-2.22 1.98-2.22 1.114 0 1.999 1.005 1.98 2.22 0 1.226-.878 2.22-1.98 2.22m7.327 0c-1.087 0-1.98-.997-1.98-2.22 0-1.222.878-2.22 1.98-2.22 1.114 0 1.999 1.005 1.98 2.22 0 1.226-.87 2.22-1.98 2.22" />
</svg>