<svg xmlns="http://www.w3.org/2000/svg" width="24" height="24" fill="none" viewBox="0 0 24 24">
    <path fill="var(--sl-channels-icon-color, #FFF)"
        d="M12.002 7.079a4.926 4.926 0 1 0-.026 9.852 4.926 4.926 0 0 0 .026-9.852m-.026 1.73a3.196 3.196 0 1 1 .026 6.392 3.196 3.196 0 0 1-.026-6.392m4-1.932a1.148 1.148 0 1 1 2.298 0 1.148 1.148 0 0 1-2.297 0m5.557 1.165c-.073-1.538-.425-2.9-1.55-4.022-1.123-1.122-2.485-1.474-4.023-1.55-1.585-.09-6.335-.09-7.92 0-1.534.073-2.896.423-4.022 1.546S2.544 6.5 2.468 8.038c-.09 1.585-.09 6.334 0 7.92.072 1.537.423 2.9 1.55 4.022 1.126 1.122 2.484 1.474 4.022 1.55 1.585.09 6.335.09 7.92 0 1.537-.073 2.9-.423 4.022-1.55 1.122-1.122 1.474-2.484 1.55-4.022.09-1.586.09-6.33 0-7.916m-2.047 9.616a3.24 3.24 0 0 1-1.826 1.825c-1.263.502-4.262.385-5.658.385s-4.399.112-5.658-.385a3.24 3.24 0 0 1-1.825-1.825c-.501-1.264-.385-4.261-.385-5.658s-.112-4.4.385-5.658c.334-.84.98-1.487 1.825-1.825 1.264-.502 4.263-.385 5.658-.385 1.397 0 4.4-.112 5.658.385.84.333 1.487.98 1.826 1.825.501 1.264.385 4.262.385 5.658s.115 4.4-.385 5.658" />
</svg>