<svg xmlns="http://www.w3.org/2000/svg" width="24" height="24" fill="none" viewBox="0 0 24 24">
    <path fill="var(--sl-channels-icon-color, #FFF)"
        d="M20.901 6.039a2.97 2.97 0 0 0-2.61-1.519H5.711c-1.244 0-2.31.716-2.78 1.868a2.955 2.955 0 0 0 .677 3.281l3.871 3.799 1.382 5.712a2.955 2.955 0 0 0 2.473 2.264q.238.036.471.036a2.95 2.95 0 0 0 2.56-1.472L20.873 9.06a2.97 2.97 0 0 0 .028-3.021m-1.463 2.168L12.93 19.156a1.3 1.3 0 0 1-1.347.638 1.3 1.3 0 0 1-1.099-1.007l-1.29-5.333 6.153-3.501a.835.835 0 0 0-.825-1.451l-6.152 3.5-3.592-3.524a1.3 1.3 0 0 1-.3-1.459c.211-.52.673-.83 1.234-.83H18.29c.486 0 .92.252 1.161.675.24.423.236.925-.013 1.343" />
</svg>