<svg xmlns="http://www.w3.org/2000/svg" width="24" height="24" fill="none" viewBox="0 0 24 24">
    <path fill="var(--sl-channels-icon-color, #FFF)"
        d="M12.023 2.7C6.773 2.7 2.7 6.536 2.7 11.723c0 2.71 1.114 5.054 2.929 6.67.311.282.247.447.3 2.183a.72.72 0 0 0 .349.604.75.75 0 0 0 .697.053c1.984-.87 2.01-.938 2.347-.848 5.746 1.582 11.978-2.096 11.978-8.663 0-5.186-4.027-9.022-9.277-9.022m5.595 6.941-2.738 4.335a1.5 1.5 0 0 1-.398.413 1.4 1.4 0 0 1-1.102.202 1.5 1.5 0 0 1-.518-.24l-2.178-1.631a.6.6 0 0 0-.338-.113c-.12 0-.24.042-.337.113l-2.94 2.227c-.394.297-.908-.172-.642-.588l2.738-4.335c.105-.161.24-.304.397-.413s.342-.18.53-.217c.187-.038.385-.03.573.015a1.5 1.5 0 0 1 .521.24l2.179 1.631a.6.6 0 0 0 .338.113c.12 0 .24-.042.337-.113l2.94-2.227c.39-.3.904.168.641.585z" />
</svg>