<svg width="24" height="24" viewBox="0 0 24 24" fill="none" xmlns="http://www.w3.org/2000/svg">
    <path
        d="M11.9999 20.4C17.3024 20.4 21.5999 16.3687 21.5999 11.4C21.5999 6.43124 17.3024 2.39999 11.9999 2.39999C6.6974 2.39999 2.3999 6.43124 2.3999 11.4C2.3999 13.4362 3.1199 15.3112 4.3349 16.8187L2.5049 20.28C2.3249 20.6175 2.38115 21.03 2.6399 21.3112C2.89865 21.5925 3.3074 21.6787 3.65615 21.5287L8.09615 19.6275C9.28865 20.1225 10.6087 20.4 11.9999 20.4ZM7.6799 8.87999H8.3999C8.7299 8.87999 8.9999 9.14999 8.9999 9.47999C8.9999 9.80999 8.7299 10.08 8.3999 10.08H7.6799C7.48115 10.08 7.3199 10.2412 7.3199 10.44C7.3199 10.6387 7.48115 10.8 7.6799 10.8C8.5424 10.8 9.2399 11.4975 9.2399 12.36C9.2399 13.2225 8.5424 13.92 7.6799 13.92H6.7199C6.3899 13.92 6.1199 13.65 6.1199 13.32C6.1199 12.99 6.3899 12.72 6.7199 12.72H7.6799C7.87865 12.72 8.0399 12.5587 8.0399 12.36C8.0399 12.1612 7.87865 12 7.6799 12C6.8174 12 6.1199 11.3025 6.1199 10.44C6.1199 9.57749 6.8174 8.87999 7.6799 8.87999ZM14.7599 10.44C14.7599 9.57749 15.4574 8.87999 16.3199 8.87999H17.0399C17.3699 8.87999 17.6399 9.14999 17.6399 9.47999C17.6399 9.80999 17.3699 10.08 17.0399 10.08H16.3199C16.1212 10.08 15.9599 10.2412 15.9599 10.44C15.9599 10.6387 16.1212 10.8 16.3199 10.8C17.1824 10.8 17.8799 11.4975 17.8799 12.36C17.8799 13.2225 17.1824 13.92 16.3199 13.92H15.3599C15.0299 13.92 14.7599 13.65 14.7599 13.32C14.7599 12.99 15.0299 12.72 15.3599 12.72H16.3199C16.5187 12.72 16.6799 12.5587 16.6799 12.36C16.6799 12.1612 16.5187 12 16.3199 12C15.4574 12 14.7599 11.3025 14.7599 10.44ZM11.0737 9.17249L11.9999 10.7137L12.9262 9.17249C13.0649 8.93999 13.3424 8.83124 13.6012 8.90249C13.8599 8.97374 14.0399 9.20999 14.0399 9.47999V13.32C14.0399 13.65 13.7699 13.92 13.4399 13.92C13.1099 13.92 12.8399 13.65 12.8399 13.32V11.6475L12.5137 12.1912C12.4049 12.3712 12.2099 12.4837 11.9999 12.4837C11.7899 12.4837 11.5949 12.3712 11.4862 12.1912L11.1599 11.6475V13.32C11.1599 13.65 10.8899 13.92 10.5599 13.92C10.2299 13.92 9.9599 13.65 9.9599 13.32V9.47999C9.9599 9.20999 10.1399 8.97374 10.3987 8.90249C10.6574 8.83124 10.9349 8.93999 11.0737 9.17249Z"
        fill="var(--sl-channels-icon-color, #FFF)" />
</svg>
