<svg xmlns="http://www.w3.org/2000/svg" width="24" height="24" fill="none" viewBox="0 0 24 24">
    <path fill="var(--sl-channels-icon-color, #FFF)" stroke="#171717"
        d="M21.041 16.148c-.127-.345-.367-.53-.641-.683q-.078-.047-.139-.071-.123-.062-.247-.128c-.855-.453-1.523-1.024-1.988-1.702a4 4 0 0 1-.341-.604c-.041-.113-.037-.176-.008-.236a.4.4 0 0 1 .11-.113c.146-.097.3-.195.4-.262.184-.12.33-.214.42-.278.353-.243.597-.506.75-.798a1.6 1.6 0 0 0 .08-1.32c-.233-.612-.81-.99-1.512-.99-.146 0-.296.015-.439.045-.037.007-.079.018-.116.026.008-.42-.004-.859-.041-1.294-.131-1.53-.668-2.329-1.227-2.97a4.8 4.8 0 0 0-1.245-1.001c-.847-.484-1.807-.728-2.853-.728s-2.003.244-2.85.728a4.9 4.9 0 0 0-1.249 1.005c-.559.637-1.095 1.44-1.226 2.97-.038.435-.045.877-.042 1.294a2.2 2.2 0 0 0-.555-.071c-.7 0-1.278.378-1.51.99a1.6 1.6 0 0 0-.106.667 1.6 1.6 0 0 0 .184.652c.154.293.401.552.75.799.094.064.24.158.42.277.097.064.244.158.386.252q.073.051.124.123c.03.06.03.128-.015.248a4 4 0 0 1-.334.593c-.454.663-1.102 1.222-1.927 1.672-.439.232-.897.386-1.088.911-.146.394-.049.844.319 1.223q.204.213.465.352c.36.199.742.349 1.136.454a.8.8 0 0 1 .229.101c.135.117.116.297.292.555.09.135.203.252.338.341.375.26.799.278 1.245.293.405.015.862.034 1.384.206.217.072.442.21.701.372.626.386 1.485.91 2.918.91 1.432 0 2.298-.528 2.928-.914.259-.158.484-.297.694-.368.521-.172.982-.191 1.384-.206.446-.019.87-.034 1.245-.293.157-.108.288-.25.382-.42.128-.217.128-.37.248-.48a.7.7 0 0 1 .217-.097 5.2 5.2 0 0 0 1.155-.457c.184-.098.349-.23.488-.383l.003-.008c.346-.37.432-.806.293-1.192z" />
</svg>
