<svg xmlns="http://www.w3.org/2000/svg" width="24" height="24" fill="none" viewBox="0 0 24 24">
    <path fill="var(--sl-channels-icon-color, #FFF)"
        d="M20.3 6.634c-.256 2.708-1.375 9.284-1.94 12.316-.243 1.285-.712 1.713-1.168 1.755-.995.09-1.748-.656-2.715-1.292-1.506-.988-2.362-1.603-3.82-2.57-1.692-1.112-.594-1.727.366-2.729.256-.262 4.635-4.248 4.718-4.607.014-.048.021-.214-.083-.304s-.249-.055-.352-.035c-.152.035-2.563 1.623-7.225 4.773q-1.028.705-1.858.684c-.615-.014-1.789-.345-2.666-.628-1.07-.345-1.927-.532-1.85-1.126.04-.311.462-.622 1.27-.946q7.491-3.266 9.988-4.303c4.76-1.976 5.747-2.321 6.39-2.335.144 0 .455.035.662.2a.7.7 0 0 1 .242.463q.05.335.027.678z" />
</svg>