<svg xmlns="http://www.w3.org/2000/svg" width="24" height="24" fill="none" viewBox="0 0 24 24">
    <path fill="var(--sl-channels-icon-color, #FFF)"
        d="M20.419 10.271a7.9 7.9 0 0 1-4.605-1.47v6.701a6.1 6.1 0 0 1-3.96 5.708 6.1 6.1 0 0 1-3.634.199 6.092 6.092 0 0 1-1.256-11.347 6.1 6.1 0 0 1 3.589-.6v3.37a2.795 2.795 0 0 0-3.09 4.324c.348.477.84.829 1.402 1.009a2.795 2.795 0 0 0 3.653-2.662V2.4h3.3c-.004.278.022.559.07.833a4.6 4.6 0 0 0 2.022 3.01c.746.492 1.62.755 2.512.755v3.277z" />
</svg>