<svg xmlns="http://www.w3.org/2000/svg" width="24" height="24" fill="none" viewBox="0 0 24 24">
    <path fill="var(--sl-channels-icon-color, #FFF)"
        d="M15.645 8.685q.359-.002.705.041C15.727 5.786 12.574 3.6 8.989 3.6c-4.02 0-7.302 2.73-7.302 6.202 0 2.003 1.1 3.657 2.922 4.936l-.724 2.197 2.55-1.279c.915.18 1.643.364 2.558.364.232 0 .453-.011.686-.03a5.2 5.2 0 0 1-.233-1.53c-.003-3.184 2.734-5.775 6.199-5.775m-3.919-1.984c.544 0 .908.364.908.915 0 .544-.364.908-.908.908-.555 0-1.099-.364-1.099-.908.004-.551.548-.915 1.1-.915M6.611 8.524c-.543 0-1.098-.364-1.098-.908 0-.555.555-.915 1.098-.915.555 0 .915.364.915.915 0 .548-.36.908-.915.908m15.702 5.854c0-2.922-2.922-5.3-6.203-5.3-3.476 0-6.202 2.378-6.202 5.3 0 2.92 2.73 5.298 6.202 5.298.724 0 1.459-.191 2.198-.371l2.002 1.099-.555-1.823c1.47-1.102 2.558-2.561 2.558-4.203m-8.217-.92c-.364 0-.723-.363-.723-.734 0-.364.363-.724.723-.724.555 0 .915.364.915.724 0 .375-.363.735-.915.735m4.017 0c-.364 0-.724-.363-.724-.734 0-.364.364-.724.724-.724.543 0 .915.364.915.724.003.375-.372.735-.915.735" />
</svg>