<svg xmlns="http://www.w3.org/2000/svg" width="24" height="24" fill="none" viewBox="0 0 24 24">
    <path fill="var(--sl-channels-icon-color, #FFF)"
        d="M18.725 5.19a9.45 9.45 0 0 0-6.73-2.79c-5.245 0-9.513 4.268-9.513 9.515a9.5 9.5 0 0 0 1.268 4.757L2.4 21.6l5.045-1.325a9.5 9.5 0 0 0 4.547 1.157h.004c5.242 0 9.605-4.268 9.605-9.515-.001-2.54-1.081-4.927-2.876-6.727m-6.73 14.64a7.9 7.9 0 0 1-4.028-1.102l-.287-.171-2.992.785.797-2.919-.188-.3a7.9 7.9 0 0 1-1.209-4.208c0-4.359 3.549-7.907 7.912-7.907 2.113 0 4.097.823 5.588 2.318 1.492 1.496 2.409 3.48 2.405 5.594 0 4.362-3.638 7.91-7.998 7.91m4.338-5.923c-.235-.12-1.405-.695-1.625-.772-.218-.081-.377-.12-.535.12s-.613.772-.755.935c-.136.158-.278.18-.514.06-1.397-.698-2.315-1.247-3.236-2.828-.244-.42.245-.39.699-1.299.076-.158.038-.295-.022-.415s-.535-1.29-.733-1.765c-.192-.465-.389-.4-.535-.408-.137-.01-.296-.01-.454-.01a.9.9 0 0 0-.635.295c-.218.24-.831.815-.831 1.985s.853 2.302.968 2.46c.12.159 1.675 2.559 4.063 3.592 1.509.651 2.1.707 2.855.595.459-.068 1.405-.575 1.603-1.132s.197-1.033.137-1.131c-.056-.106-.215-.166-.45-.282" />
</svg>