<?xml version="1.0" encoding="UTF-8"?>
<svg id="a" data-name="Layer 2" xmlns="http://www.w3.org/2000/svg" viewBox="0 0 256 256">
	<defs>
		<style>
			.c {
			fill: #fff;
			}
		</style>
	</defs>
	<path class="c"
		  d="M256,128.06c0,10.92-5.4,20.8-14.49,26.74l-101.18,79.22c-3.32,2.62-7.31,3.86-11.21,3.86-5.44,0-10.84-2.41-14.41-7.06-6.1-7.89-4.07-19.89,3.82-26.03l49.74-38.94c24.58-19.22,24.58-56.38,0-75.65l-50.36-39.44c-8.39-6.56-9.47-19.02-1.95-26.95,6.56-6.89,17.56-7.14,25.04-1.29l100.56,78.76c9.09,5.9,14.45,15.82,14.45,26.74v.04ZM165.78,128.06c0-10.92-5.4-20.8-14.45-26.74L49.7,21.73c-.33-.29-.71-.5-1.08-.75l-4.4-2.57c-.91-.54-1.87-.95-2.91-1.16C17.68,11.81,0,28.87,0,48.22v16.07c0,5.6,4.53,10.13,10.13,10.13h39.77c3.78,0,7.31,2.08,8.97,5.44,3.99,8.1-1.83,16.11-9.47,16.11H10.09C4.52,95.96,0,100.49,0,106.05H0c0,5.56,4.53,10.09,10.09,10.09h72.99c3.78,0,7.31,2.08,8.97,5.44,3.99,8.1-1.83,16.11-9.47,16.11H10.09C4.52,137.69,0,142.21,0,147.78H0c0,5.56,4.53,10.09,10.09,10.09h39.82c3.78,0,7.31,2.08,8.97,5.44,3.99,8.1-1.83,16.11-9.47,16.11H10.13C4.52,179.41,0,183.98,0,189.59v22.88c0,1.04.12,2.08.46,3.07,5.19,16.19,18.35,24.25,31.47,24.25,5.6,0,11.25-1.49,16.23-4.44l1.04-.62,102.13-79.96c9.09-5.9,14.49-15.82,14.49-26.74l-.04.04Z"/>
</svg>
