<svg width="17" height="20" viewBox="0 0 17 20" fill="none" xmlns="http://www.w3.org/2000/svg">
    <path
        d="M16.74 19.25C16.74 19.4489 16.661 19.6397 16.5203 19.7803C16.3797 19.921 16.1889 20 15.99 20H0.75C0.551088 20 0.360322 19.921 0.21967 19.7803C0.0790175 19.6397 0 19.4489 0 19.25C0 15.15 4.5 11.97 8.37 11.97C12.24 11.97 16.74 15.15 16.74 19.25ZM13.47 5.11C13.468 6.11826 13.1672 7.1033 12.6056 7.94068C12.044 8.77805 11.2468 9.43018 10.3148 9.81465C9.38269 10.1991 8.35757 10.2987 7.36892 10.1008C6.38028 9.90287 5.47248 9.41636 4.76023 8.70271C4.04799 7.98907 3.56325 7.08032 3.36728 6.09129C3.1713 5.10226 3.27288 4.07733 3.65918 3.14601C4.04548 2.21469 4.69916 1.41877 5.53763 0.858815C6.37611 0.298861 7.36174 1.93822e-06 8.37 0C9.72352 0.00264878 11.0207 0.542191 11.9769 1.50022C12.933 2.45824 13.47 3.75647 13.47 5.11Z"
        fill="#FFF" stroke='#dadada' />
</svg>
