<?xml version="1.0" encoding="UTF-8"?>
<svg id="Layer_2" data-name="Layer 2" xmlns="http://www.w3.org/2000/svg" xmlns:xlink="http://www.w3.org/1999/xlink"
	 viewBox="0 0 279 53.85">
	<defs>
		<style>
			.cls-1 {
				fill: url(#linear-gradient);
			}
		</style>
		<linearGradient id="linear-gradient" x1="0" y1="26.92" x2="61.66" y2="26.92" gradientUnits="userSpaceOnUse">
			<stop offset="0" stop-color="#7c3aed"/>
			<stop offset="1" stop-color="#7b63ff"/>
		</linearGradient>
	</defs>

	<path fill="#1e1e1e"
		  d="M92.4,12.36v6.11c-2.29-1.63-5.46-2.66-8.26-2.66-3.08,0-5.36,1.26-5.36,3.64,0,2.19,1.91,3.27,5.78,4.85,4.76,1.91,9.7,3.97,9.7,10.03s-4.81,10.03-12.04,10.03c-3.97,0-7.56-1.17-9.84-2.8v-6.53c2.43,2.1,5.92,3.73,9.47,3.73,3.36,0,5.88-1.59,5.88-4.25,0-2.47-2.43-3.59-6.58-5.32-4.06-1.68-8.72-3.78-8.72-9.47s4.57-9.56,11.48-9.56c3.31,0,6.3.89,8.49,2.19Z"/>
	<path fill="#1e1e1e"
		  d="M106.21,13.15c0,1.96-1.54,3.45-3.45,3.45s-3.55-1.49-3.55-3.45,1.59-3.45,3.55-3.45,3.45,1.49,3.45,3.45ZM99.68,20.05h6.06v23.79h-6.06v-23.79Z"/>
	<path fill="#1e1e1e"
		  d="M126.13,43.47c-.98.56-2.47.93-4.43.93-4.9,0-7.93-2.89-7.93-8.02v-11.48h-3.36v-4.85h3.55v-5.41l5.88-1.54v6.95h5.74v4.85h-5.74v10.64c0,2.43,1.26,3.45,3.5,3.45.65,0,1.82-.19,2.8-.75v5.22Z"/>
	<path fill="#1e1e1e"
		  d="M151.88,30.74c0,.89-.09,1.96-.19,2.66h-16.47c.47,4.15,3.78,5.78,7.42,5.78,2.94,0,5.92-1.07,7.65-2.52v5.74c-2.61,1.63-5.6,2.01-8.44,2.01-7.65,0-12.87-4.9-12.87-12.41,0-7.04,4.8-12.5,11.94-12.5s10.96,5.04,10.96,11.24ZM135.27,29.43h10.82c-.23-2.89-2.24-4.85-5.27-4.85s-5.04,1.91-5.55,4.85Z"/>
	<path fill="#1e1e1e" d="M157.34,10.77h6.16v27.57h13.67v5.5h-19.83V10.77Z"/>
	<path fill="#1e1e1e"
		  d="M201.93,30.74c0,.89-.09,1.96-.19,2.66h-16.47c.47,4.15,3.78,5.78,7.42,5.78,2.94,0,5.92-1.07,7.65-2.52v5.74c-2.61,1.63-5.6,2.01-8.44,2.01-7.65,0-12.88-4.9-12.88-12.41,0-7.04,4.81-12.5,11.94-12.5s10.96,5.04,10.96,11.24ZM185.33,29.43h10.82c-.23-2.89-2.24-4.85-5.27-4.85s-5.04,1.91-5.55,4.85Z"/>
	<path fill="#1e1e1e"
		  d="M215.51,19.49c6.06,0,10.45,3.31,10.45,9.33v15.02h-5.64v-3.31c-1.49,2.43-4.06,3.87-7.18,3.87-4.48,0-7.74-2.85-7.74-6.76,0-4.15,3.08-6.53,8.63-7.37l6.02-.89v-.65c0-2.47-1.96-3.92-4.99-3.92s-6.06,1.35-7.84,2.66v-5.69c2.01-1.31,5.08-2.29,8.3-2.29ZM220.08,34.19v-.89l-4.81.61c-2.61.33-4.11,1.4-4.11,3.13,0,1.63,1.35,2.66,3.31,2.66,3.08,0,5.6-2.52,5.6-5.5Z"/>
	<path fill="#1e1e1e"
		  d="M242.1,44.41c-6.2,0-11.2-5.08-11.2-12.46s5.04-12.46,11.1-12.46c3.08,0,5.97,1.54,7.28,3.5v-12.27h6.02v33.12h-5.64v-3.22c-1.26,2.19-4.39,3.78-7.56,3.78ZM249.61,32c0-4.25-2.89-7.04-6.34-7.04s-6.3,2.85-6.3,7.04,2.89,7.04,6.3,7.04,6.34-2.85,6.34-7.04Z"/>
	<path fill="#1e1e1e"
		  d="M277.64,21.55v5.6c-2.01-1.63-4.48-2.61-7.14-2.61s-3.83.93-3.83,2.24c0,1.45,1.45,2.15,4.38,2.94,3.87,1.03,7.93,2.38,7.93,7.18s-3.59,7.51-9.52,7.51c-3.27,0-6.25-.89-8.4-2.43v-6.02c2.24,2.15,4.76,3.45,8.02,3.45,2.8,0,4.25-1.03,4.25-2.47,0-1.59-1.82-2.15-4.99-3.13-3.69-1.12-7.42-2.61-7.42-6.9s3.64-7.42,9.33-7.42c2.75,0,5.6.79,7.37,2.05Z"/>

	<path class="cls-1"
		  d="M61.66,26.94c0,2.63-1.3,5.01-3.49,6.44l-24.37,19.08c-.8.63-1.76.93-2.7.93-1.31,0-2.61-.58-3.47-1.7-1.47-1.9-.98-4.79.92-6.27l11.98-9.38c5.92-4.63,5.92-13.58,0-18.22l-12.13-9.5c-2.02-1.58-2.28-4.58-.47-6.49,1.58-1.66,4.23-1.72,6.03-.31l24.22,18.97c2.19,1.42,3.48,3.81,3.48,6.44ZM39.93,26.94c0-2.63-1.3-5.01-3.48-6.44L11.97,1.33c-.08-.07-.17-.12-.26-.18l-1.06-.62c-.22-.13-.45-.23-.7-.28C4.26-1.06,0,3.05,0,7.71v3.87C0,12.93,1.09,14.02,2.44,14.02h9.58c.91,0,1.76.5,2.16,1.31.96,1.95-.44,3.88-2.28,3.88H2.43c-1.34,0-2.43,1.09-2.43,2.43H0c0,1.34,1.09,2.43,2.43,2.43h1.96s4.39,0,4.39,0h11.23c.91,0,1.76.5,2.16,1.31.96,1.95-.44,3.88-2.28,3.88H2.43c-1.34,0-2.43,1.09-2.43,2.43H0c0,1.34,1.09,2.43,2.43,2.43h1.96s4.39,0,4.39,0h3.24c.91,0,1.76.5,2.16,1.31.96,1.95-.44,3.88-2.28,3.88H2.44C1.09,39.31,0,40.41,0,41.76v5.51c0,.25.03.5.11.74,1.25,3.9,4.42,5.84,7.58,5.84,1.35,0,2.71-.36,3.91-1.07l.25-.15,24.6-19.26c2.19-1.42,3.49-3.81,3.49-6.44Z"/>

</svg>
