<svg xmlns="http://www.w3.org/2000/svg" id="Layer_2" width="62" height="62" data-name="Layer 2"
	viewBox="0 -4 62 62">
	<defs>
		<linearGradient id="linear-gradient" x1="0" x2="61.66" y1="26.92" y2="26.92"
			gradientUnits="userSpaceOnUse">
			<stop offset="0" stop-color="#7c3aed" />
			<stop offset="1" stop-color="#7b63ff" />
		</linearGradient>
	</defs>
	<path
		d="M61.66 26.94c0 2.63-1.3 5.01-3.49 6.44L33.8 52.46a4.36 4.36 0 0 1-6.17-.77c-1.47-1.9-.98-4.79.92-6.27l11.98-9.38a11.57 11.57 0 0 0 0-18.22L28.4 8.32a4.4 4.4 0 0 1-.47-6.49 4.53 4.53 0 0 1 6.03-.31l24.22 18.97a7.6 7.6 0 0 1 3.48 6.44Zm-21.73 0c0-2.63-1.3-5.01-3.48-6.44L11.97 1.33q-.12-.1-.26-.18L10.65.53a2 2 0 0 0-.7-.28C4.26-1.06 0 3.05 0 7.71v3.87a2.44 2.44 0 0 0 2.44 2.44h9.58c.91 0 1.76.5 2.16 1.31a2.62 2.62 0 0 1-2.28 3.88H2.43a2.43 2.43 0 0 0 0 4.86h17.58c.91 0 1.76.5 2.16 1.31a2.62 2.62 0 0 1-2.28 3.88H2.43a2.43 2.43 0 0 0 0 4.86h9.59c.91 0 1.76.5 2.16 1.31a2.62 2.62 0 0 1-2.28 3.88H2.44A2.45 2.45 0 0 0 0 41.76v5.51q0 .38.11.74c1.25 3.9 4.42 5.84 7.58 5.84a7.7 7.7 0 0 0 3.91-1.07l.25-.15 24.6-19.26a7.6 7.6 0 0 0 3.49-6.44Z"
		style="fill:url(#linear-gradient)" />
</svg>
